<svg xmlns="http://www.w3.org/2000/svg" version="1.1" desc="Created with imagetracer.js version 1.2.6" viewBox="0 0 320 320" preserveAspectRatio="xMidYMid meet"><path fill="rgb(0,0,0)" stroke="rgb(0,0,0)" stroke-width="1" opacity="0" d="M 0 0 L 0.5 0 L 319.5 0 L 320 0 L 320 0.5 L 320 319.5 L 320 320 L 319.5 320 L 0.5 320 L 0 320 L 0 319.5 L 0 0.5 L 0 0 Z M 31 50 L 31 51 L 31 232 L 32 233 L 32 234 L 33 235 L 33 236 L 34 237 L 34 238 L 35 239 L 35 240 L 36 241 L 36 242 L 39 245 L 39 246 L 52 258 L 53 258 L 55 260 L 56 260 L 58 262 L 60 262 L 62 264 L 63 264 L 64 265 L 66 265 L 67 266 L 68 266 L 69 267 L 71 267 L 72 268 L 75 268 L 76 269 L 81 269 L 82 270 L 110 270 L 112 268 L 112 216 L 110 213 L 84 213 L 82 212 L 82 207 L 83 206 L 83 192 L 82 191 L 82 179 L 83 178 L 82 177 L 82 94 L 81 93 L 81 90 L 80 89 L 80 86 L 79 85 L 79 83 L 78 82 L 78 81 L 77 80 L 77 79 L 76 78 L 76 77 L 75 76 L 75 75 L 73 73 L 73 72 L 70 69 L 70 68 L 68 65 L 67 65 L 62 60 L 61 60 L 58 57 L 57 57 L 56 56 L 55 56 L 54 55 L 53 55 L 52 54 L 51 54 L 50 53 L 47 53 L 46 52 L 44 52 L 43 51 L 38 51 L 37 50 L 32 50 L 31 50 Z M 127 50 L 124 53 L 124 268 L 127 270 L 178 270 L 179 269 L 179 268 L 180 267 L 180 217 L 182 215 L 215 215 L 216 214 L 220 214 L 221 213 L 222 214 L 223 214 L 224 213 L 226 213 L 227 212 L 230 212 L 231 211 L 233 211 L 234 210 L 236 210 L 237 209 L 239 209 L 241 207 L 243 207 L 244 206 L 245 206 L 246 205 L 247 205 L 248 204 L 249 204 L 251 202 L 252 202 L 254 200 L 255 200 L 259 196 L 260 196 L 269 187 L 269 186 L 273 182 L 273 181 L 276 178 L 276 177 L 277 176 L 277 175 L 279 173 L 279 172 L 280 171 L 280 169 L 282 167 L 282 165 L 283 164 L 283 163 L 284 162 L 284 160 L 285 159 L 285 156 L 286 155 L 286 154 L 287 153 L 287 149 L 288 148 L 288 141 L 289 140 L 289 124 L 288 123 L 288 117 L 287 116 L 287 112 L 286 111 L 286 109 L 285 108 L 285 106 L 284 105 L 284 103 L 283 102 L 283 101 L 282 100 L 282 98 L 280 96 L 280 94 L 278 92 L 278 91 L 277 90 L 277 89 L 275 87 L 275 86 L 272 83 L 272 82 L 258 67 L 257 67 L 254 64 L 253 64 L 252 63 L 251 63 L 249 61 L 248 61 L 247 60 L 246 60 L 244 58 L 243 58 L 242 57 L 241 57 L 240 56 L 238 56 L 237 55 L 235 55 L 234 54 L 232 54 L 231 53 L 228 53 L 227 52 L 224 52 L 223 51 L 215 51 L 214 50 L 127 50 Z "/><path fill="rgb(0,0,0)" stroke="rgb(0,0,0)" stroke-width="1" opacity="0" d="M 153.5 87 L 159.5 87 L 161.5 89 L 162.5 89 L 163.5 90 L 164.5 90 L 166.5 92 L 167.5 92 L 168.5 93 L 169.5 93 L 171.5 95 L 172.5 95 L 174.5 97 L 175.5 97 L 176.5 98 L 177.5 98 L 179.5 100 L 180.5 100 L 182.5 102 L 184.5 102 L 185.5 103 L 186.5 103 L 187.5 104 L 209.5 104 L 210.5 105 L 213.5 105 L 214.5 106 L 215.5 106 L 216.5 107 L 218.5 107 L 220.5 109 L 221.5 109 L 228 115.5 L 228 116.5 L 230 118.5 L 230 119.5 L 231 120.5 L 231 121.5 L 232 122.5 L 232 124.5 L 233 125.5 L 233 131.5 L 234 132.5 L 234 134.5 L 233 135.5 L 233 141.5 L 232 142.5 L 232 143.5 L 231 144.5 L 231 145.5 L 230 146.5 L 230 147.5 L 229 148.5 L 229 149.5 L 227 151.5 L 227 152.5 L 223.5 156 L 222.5 156 L 220.5 158 L 219.5 158 L 218.5 159 L 217.5 159 L 216.5 160 L 215.5 160 L 214.5 161 L 211.5 161 L 210.5 162 L 194.5 162 L 193.5 163 L 191.5 163 L 189.5 165 L 188.5 165 L 187.5 166 L 186.5 166 L 184.5 168 L 183.5 168 L 181.5 170 L 180.5 170 L 179.5 171 L 178.5 171 L 176.5 173 L 175.5 173 L 173.5 175 L 172.5 175 L 171.5 176 L 170.5 176 L 169.5 177 L 168.5 177 L 166.5 179 L 165.5 179 L 164.5 180 L 163.5 180 L 161.5 182 L 160.5 182 L 159.5 183 L 153.5 183 L 150 179.5 L 150 90.5 L 153.5 87 Z M 162 103 L 160 105 L 160 167 L 162 168 L 164 168 L 165 167 L 166 167 L 168 165 L 169 165 L 170 164 L 171 164 L 173 162 L 174 162 L 176 160 L 177 160 L 178 159 L 179 159 L 181 157 L 182 157 L 184 155 L 185 155 L 186 154 L 187 154 L 189 152 L 190 152 L 191 151 L 192 151 L 194 149 L 195 149 L 197 147 L 198 147 L 200 145 L 201 145 L 202 144 L 203 144 L 204 143 L 205 143 L 208 140 L 209 140 L 210 139 L 210 133 L 209 132 Q 209 130 209 130 Q 209 130 208 130 L 206 128 L 205 128 L 204 127 L 203 127 L 201 125 L 200 125 L 198 123 L 197 123 L 195 121 L 194 121 L 193 120 L 192 120 L 190 118 L 189 118 L 187 116 L 186 116 L 185 115 L 184 115 L 182 113 L 181 113 L 180 112 L 179 112 L 177 110 L 176 110 L 174 108 L 173 108 L 172 107 L 171 107 L 169 105 L 168 105 L 167 104 L 166 104 L 165 103 L 162 103 Z "/><path fill="rgb(110,100,197)" stroke="rgb(110,100,197)" stroke-width="1" opacity="1" d="M 32 51 L 32.5 51 L 35.5 51 L 36.5 52 L 39.5 52 L 40.5 53 L 41.5 52 L 42.5 52 L 43.5 53 L 44.5 53 L 46.5 55 L 47.5 55 L 48.5 56 L 50.5 56 L 51.5 57 L 53.5 57 L 55.5 59 L 56.5 59 L 58.5 61 L 59.5 61 L 61.5 63 L 63.5 63 L 65 64.5 L 65 65.5 L 67.5 68 L 68.5 68 L 70 69.5 L 70 70.5 L 71 71.5 L 71 73.5 L 73 75.5 L 73 76.5 L 75 78.5 L 75 80.5 L 76 81.5 L 76 82.5 L 77 83.5 L 77 84.5 L 78 85.5 L 78 88.5 L 79 89.5 L 79 91.5 L 80 92.5 L 80 175.5 L 81 176.5 L 81 179.5 L 80 180.5 L 80 189.5 L 81 190.5 L 81 193.5 L 82 194.5 L 82 197.5 L 81 198.5 L 81 207.5 L 80 208.5 L 80 210.5 L 81 211.5 L 81 212.5 L 82.5 214 L 107.5 214 L 108 214 L 108 214.5 Q 108 215.8 108 216 L 108.5 216 Q 109.8 216 110 216 L 110 216.5 L 110 267.5 L 110 268 L 109.5 268 L 84.5 268 L 83.5 269 L 82.5 269 L 81.5 268 L 79.5 268 L 78.5 267 L 76.5 267 L 75.5 266 L 71.5 266 L 70.5 265 L 67.5 265 L 65.5 263 L 64.5 263 L 63.5 262 L 62.5 262 L 61.5 261 L 60.5 261 L 59.5 260 L 57.5 260 L 55.5 258 Q 54.3 258 54 258 L 54 257.5 Q 54 256.3 54 256 Q 53.8 256 52.5 256 L 47.5 251 Q 46.3 251 46 251 Q 46 250.8 46 249.5 L 41 244.5 Q 41 243.3 41 243 L 40.5 243 Q 39.3 243 39 243 Q 39 242.8 39 241.5 L 37 239.5 L 37 238.5 L 36 237.5 L 36 235.5 L 34 233.5 L 34 231.5 L 32 229.5 L 32 51.5 L 32 51 Z "/><path fill="rgb(110,100,197)" stroke="rgb(110,100,197)" stroke-width="1" opacity="1" d="M 127.5 51 L 213.5 51 L 214.5 52 L 217.5 52 L 218.5 53 L 219.5 53 L 220.5 52 Q 221.8 52 222 52 L 222 52.5 Q 222 53.8 222 54 Q 222.3 54 223.5 54 L 224.5 53 L 225.5 53 L 227.5 55 L 228.5 54 Q 229.8 54 230 54 Q 230 54.3 230 55.5 L 230.5 56 L 231.5 55 L 232.5 55 L 234.5 57 L 236.5 57 L 238.5 59 L 240.5 59 L 241.5 60 L 242.5 59 L 243 59.5 Q 243 60.8 243 61 L 243.5 61 L 245.5 61 L 247.5 63 L 248.5 62 L 251 64.5 Q 250.8 65.8 251.5 66 L 252.5 65 L 255.5 68 Q 256.8 68 257 68 Q 257 68.3 257 69.5 L 258.5 71 L 260.5 71 L 261 71 L 261 71.5 L 261 73.5 L 261 74 L 261.5 74 Q 262.8 74 263 74 L 263 74.5 Q 263 75.8 263 76 Q 263.3 76 264.5 76 L 266 77.5 Q 265.8 78.8 266.5 79 L 267.5 78 L 269 79.5 L 268 80.5 L 269.5 82 L 270.5 82 L 272 83.5 L 271 84.5 L 274 87.5 L 274 88.5 L 275 89.5 L 275 90.5 L 277 92.5 L 277 93.5 L 278 94.5 L 278 95.5 L 280 97.5 L 280 99.5 L 281 100.5 L 281 102.5 L 281 103 Q 281.3 103 282.5 103 L 283 103.5 L 282 104.5 L 283 105.5 L 283 108.5 L 284 109.5 L 284 110.5 L 285 111.5 L 285 112.5 L 286 113.5 L 285 114.5 L 285 115.5 L 286 116.5 L 286 118.5 L 287 119.5 L 287 121.5 L 286 122.5 Q 286 123.8 286 124 L 286.5 124 Q 287.8 124 288 124 L 288 124.5 L 288 138.5 L 288 139 Q 287.8 139 286.5 139 L 286 139.5 L 287 140.5 L 286 141.5 L 287 142.5 L 287 144.5 L 286 145.5 L 286 147.5 L 285 148.5 L 285 152.5 L 284 153.5 L 284 154.5 L 283 155.5 L 283 158.5 L 282 159.5 L 282 160.5 L 281 161.5 L 282 162.5 L 280 164.5 L 280 166.5 L 278 168.5 L 278 170.5 L 276 172.5 L 276 173.5 L 275 174.5 L 275 175.5 L 272 178.5 L 272 179.5 L 270 181.5 Q 270 182.8 270 183 L 269.5 183 Q 268.3 183 268 183 Q 268 183.3 268 184.5 L 257.5 195 Q 256.3 195 256 195 Q 256 195.3 256 196.5 L 254.5 198 L 253.5 198 L 252.5 199 L 251.5 199 L 249.5 201 L 248.5 201 L 246.5 203 L 245.5 203 L 244.5 204 L 243.5 204 L 242.5 205 L 241.5 205 L 240.5 206 L 238.5 206 L 237.5 207 L 236.5 207 L 235.5 208 L 233.5 208 L 232.5 209 L 231.5 209 L 230.5 210 L 226.5 210 L 225.5 211 L 220.5 211 L 219.5 212 L 216.5 212 L 215.5 213 L 190.5 213 L 189.5 214 L 180.5 214 L 179.5 215 Q 178.3 215 178 215 L 178 215.5 L 178 267.5 L 178 268 L 177.5 268 L 126.5 268 L 126 268 L 126 267.5 L 126 92.5 L 125 91.5 L 125 84.5 L 126 83.5 L 126 77.5 L 125 76.5 L 125 69.5 L 126 68.5 L 126 64.5 L 125 63.5 L 125 55.5 L 126 54.5 L 126 52.5 L 127.5 51 Z M 249 63 Q 248 64 249 64 Q 250 64 249 63 Z M 153 85 L 152 86 Q 150 86 150 86 Q 150 86 150 88 L 149 89 L 149 90 L 148 91 L 148 181 L 152 184 L 153 184 L 154 185 L 155 185 L 156 184 L 158 184 L 159 185 L 161 185 L 162 184 L 163 184 L 165 182 L 166 182 L 167 181 L 168 181 L 170 179 L 171 179 L 173 177 L 174 177 L 175 176 L 176 176 L 178 174 L 179 174 L 181 172 L 182 172 L 183 171 L 184 171 L 186 169 L 187 169 L 189 167 L 190 167 L 191 166 L 192 166 L 193 165 L 194 165 L 196 163 L 209 163 L 210 164 L 212 164 L 213 163 L 215 163 L 216 162 L 218 162 L 219 161 L 221 161 L 221 161 Q 221 161 221 160 L 223 158 L 224 158 L 225 157 L 226 157 L 227 156 Q 227 154 227 154 Q 227 154 229 154 L 229 154 Q 229 154 229 153 L 231 151 L 231 150 L 232 149 L 232 148 L 233 147 L 233 145 L 234 144 L 234 142 L 235 141 L 235 139 L 234 138 Q 234 136 234 136 Q 234 136 236 136 L 236 136 L 236 136 L 236 131 L 236 130 Q 236 130 235 130 L 234 130 L 235 129 L 235 127 L 234 126 L 234 125 L 233 124 L 234 123 L 234 122 L 232 120 L 232 119 L 231 118 L 231 117 L 229 115 Q 229 113 229 113 Q 229 113 228 113 L 227 113 Q 227 113 227 112 L 226 110 Q 224 110 224 110 Q 224 110 224 109 L 224 108 Q 224 108 223 108 L 221 106 L 220 106 L 219 105 L 217 105 L 216 104 L 215 104 L 214 103 L 207 103 L 206 102 L 188 102 L 187 101 L 186 101 L 185 100 L 184 100 L 182 98 L 181 98 L 179 96 L 178 96 L 177 95 L 176 95 L 174 93 L 173 93 L 171 91 L 170 91 L 169 90 L 168 90 L 166 88 L 165 88 L 164 87 L 163 87 L 161 85 L 153 85 Z "/><path fill="rgb(110,100,197)" stroke="rgb(110,100,197)" stroke-width="1" opacity="1" d="M 162.5 104 L 163.5 105 L 164.5 105 L 166.5 107 L 167.5 107 L 168.5 108 L 169.5 108 L 170.5 109 Q 171.8 109 172 109 L 172 109.5 Q 172 110.8 172 111 L 172.5 111 L 174.5 111 L 176.5 113 L 177.5 113 L 178.5 114 Q 179.8 114 180 114 L 180 114.5 Q 180 115.8 180 116 L 180.5 116 L 182.5 116 L 183.5 117 L 184.5 117 L 186.5 119 Q 187.8 119 188 119 L 188 119.5 Q 188 120.8 188 121 L 188.5 121 L 190.5 121 L 191.5 122 L 192.5 122 L 193.5 123 L 194.5 123 L 196 124.5 Q 196 125.8 196 126 L 196.5 126 L 199.5 126 L 200 126 Q 200 126.3 200 127.5 L 200.5 128 L 201.5 127 L 206.5 132 Q 207.8 132 208 132 Q 208 132.3 208 133.5 L 209 134.5 L 209 135.5 L 208 136.5 L 208 137.5 L 205.5 140 L 204.5 140 L 203.5 141 L 202.5 141 L 200.5 143 L 199.5 143 L 197.5 145 L 196.5 145 L 195.5 146 L 194.5 146 L 192.5 148 L 191.5 148 L 189.5 150 L 188.5 150 L 187.5 151 L 186.5 151 L 184.5 153 L 183.5 153 L 181.5 155 L 180.5 155 L 179.5 156 L 178.5 156 L 176.5 158 L 175.5 158 L 173.5 160 L 172.5 160 L 171.5 161 L 170.5 161 L 168.5 163 L 167.5 163 L 165.5 165 L 164.5 165 L 163.5 166 Q 162.3 166 162 166 L 162 165.5 L 162 104.5 L 162.5 104 Z M 202 128 Q 201 129 202 129 Q 203 129 202 128 Z "/><path fill="rgb(161,94,208)" stroke="rgb(161,94,208)" stroke-width="1" opacity="0.10588235294117647" d="M 32.5 50 L 35.5 50 L 36.5 51 L 41.5 51 L 42 51.5 L 41.5 52 L 36.5 52 L 35.5 51 L 32.5 51 L 32 51 L 32 51.5 L 32 229.5 L 31.5 230 L 31 229.5 L 31 51.5 L 32.5 50 Z "/><path fill="rgb(161,94,208)" stroke="rgb(161,94,208)" stroke-width="1" opacity="0.10588235294117647" d="M 126.5 50 L 212.5 50 L 213 50.5 L 212.5 51 L 127.5 51 L 126.5 52 Q 125.3 52 125 52 L 125 52.5 L 125 136.5 L 124.5 137 L 124 136.5 L 124 52.5 L 126.5 50 Z "/><path fill="rgb(161,94,208)" stroke="rgb(161,94,208)" stroke-width="1" opacity="0.10588235294117647" d="M 214.5 51 L 221.5 51 L 222.5 52 L 225.5 52 L 226.5 53 L 229.5 53 L 230.5 54 L 232.5 54 L 233.5 55 L 236.5 55 L 237.5 56 L 238.5 56 L 239.5 57 L 240.5 57 L 241.5 58 L 242.5 58 L 243.5 59 L 244.5 59 L 245.5 60 L 246.5 60 L 247.5 61 L 248.5 61 L 250.5 63 L 251.5 63 L 253.5 65 L 254.5 65 L 256.5 67 L 257.5 67 L 272 81.5 L 272 82.5 L 274 84.5 L 274 85.5 L 277 88.5 L 277 89.5 L 278 90.5 L 278 91.5 L 279 92.5 L 279 93.5 L 280 94.5 L 280 95.5 L 281 96.5 L 281 97.5 L 282 98.5 L 282 99.5 L 283 100.5 L 283 101.5 L 284 102.5 L 284 104.5 L 285 105.5 L 285 108.5 L 286 109.5 L 286 111.5 L 287 112.5 L 287 117.5 L 288 118.5 L 288 123.5 L 289 124.5 L 289 126.5 Q 288.5 127.5 288 126.5 L 288 124.5 L 287 123.5 L 287 118.5 L 286 117.5 L 286 113.5 L 285 112.5 L 285 109.5 L 284 108.5 L 284 106.5 L 283 105.5 L 283 103.5 L 282 102.5 L 282 101.5 L 281 100.5 L 281 98.5 L 280 97.5 L 280 96.5 L 279 95.5 L 279 94.5 L 278 93.5 L 278 92.5 L 277 91.5 L 277 90.5 L 275 88.5 L 275 87.5 L 272 84.5 L 272 83.5 L 269 80.5 L 269 79.5 L 259.5 70 L 258.5 70 L 256.5 68 L 255.5 68 L 252.5 65 L 251.5 65 L 248.5 62 L 246.5 62 L 244.5 60 L 243.5 60 L 242.5 59 L 241.5 59 L 240.5 58 L 239.5 58 L 238.5 57 L 236.5 57 L 235.5 56 L 233.5 56 L 232.5 55 L 230.5 55 L 229.5 54 L 226.5 54 L 225.5 53 L 222.5 53 L 221.5 52 L 214.5 52 Q 213.5 51.5 214.5 51 Z "/><path fill="rgb(161,94,208)" stroke="rgb(161,94,208)" stroke-width="1" opacity="0.10588235294117647" d="M 43.5 52 L 45.5 52 L 46.5 53 Q 47.8 52.8 48 53.5 L 47.5 54 L 45.5 54 L 44.5 53 Q 43.3 53.3 43 52.5 L 43.5 52 Z "/><path fill="rgb(161,94,208)" stroke="rgb(161,94,208)" stroke-width="1" opacity="0.10588235294117647" d="M 49.5 53 L 50.5 54 L 51.5 54 L 52.5 55 L 53.5 55 L 54.5 56 L 55.5 56 L 56.5 57 L 57.5 57 L 60.5 60 L 61.5 60 L 67.5 66 L 68.5 66 L 70 67.5 L 70 68.5 L 72 70.5 L 72 71.5 L 74 73.5 L 74 74.5 L 75 75.5 L 75 76.5 L 77 78.5 L 77 79.5 L 78 80.5 L 78 82.5 L 79 83.5 L 79 84.5 L 80 85.5 L 80 88.5 L 81 89.5 L 81 94.5 L 82 95.5 L 82 176.5 L 83 177.5 L 82 178.5 Q 82.3 179.8 81.5 180 L 81 179.5 L 81 95.5 L 80 94.5 L 80 89.5 L 79 88.5 L 79 86.5 L 78 85.5 L 78 83.5 L 77 82.5 L 77 81.5 L 76 80.5 L 76 79.5 L 75 78.5 L 75 77.5 L 74 76.5 L 74 75.5 L 73 74.5 L 73 73.5 L 70 70.5 L 70 69.5 L 62.5 62 L 61.5 62 L 58.5 59 L 57.5 59 L 56.5 58 L 55.5 58 L 54.5 57 L 53.5 57 L 52.5 56 L 51.5 56 L 50.5 55 Q 49.3 55 49 55 Q 49 54.8 49 53.5 L 49.5 53 Z "/><path fill="rgb(161,94,208)" stroke="rgb(161,94,208)" stroke-width="1" opacity="0.10588235294117647" d="M 154.5 85 L 157.5 85 L 158.5 86 L 160.5 86 L 162.5 88 L 163.5 88 L 165 89.5 L 164.5 90 L 163.5 89 L 162.5 89 L 160.5 87 L 152.5 87 L 152 87 Q 152 87.3 152 88.5 L 150 90.5 L 150 145.5 L 149 146.5 L 149 170.5 L 148.5 171 L 148 170.5 L 148 92.5 L 149 91.5 L 149 90.5 L 150 89.5 L 150 88.5 L 152.5 86 L 153.5 86 L 154.5 85 Z "/><path fill="rgb(161,94,208)" stroke="rgb(161,94,208)" stroke-width="1" opacity="0.10588235294117647" d="M 166.5 90 L 168 91.5 L 167.5 92 L 166 90.5 L 166.5 90 Z "/><path fill="rgb(161,94,208)" stroke="rgb(161,94,208)" stroke-width="1" opacity="0.10588235294117647" d="M 169.5 92 Q 170.5 92.5 169.5 93 Q 168.5 92.5 169.5 92 Z "/><path fill="rgb(161,94,208)" stroke="rgb(161,94,208)" stroke-width="1" opacity="0.10588235294117647" d="M 171.5 93 L 173.5 95 L 174.5 95 L 175.5 96 L 176.5 96 L 178.5 98 L 179.5 98 L 180.5 99 L 181.5 99 L 183.5 101 L 184.5 101 L 185.5 102 Q 186.8 101.8 187 102.5 Q 186.8 103.3 185.5 103 L 184.5 102 L 183.5 102 L 181.5 100 L 180.5 100 L 179.5 99 L 178.5 99 L 176.5 97 L 175.5 97 L 174.5 96 L 173.5 96 L 171 93.5 L 171.5 93 Z "/><path fill="rgb(161,94,208)" stroke="rgb(161,94,208)" stroke-width="1" opacity="0.10588235294117647" d="M 161 103 L 161.5 103 L 164.5 103 L 166 104.5 L 165.5 105 L 164.5 104 L 162.5 104 Q 161.8 103.8 162 104.5 L 162 132.5 Q 161.5 133.5 161 132.5 L 161 103.5 L 161 103 Z "/><path fill="rgb(161,94,208)" stroke="rgb(161,94,208)" stroke-width="1" opacity="0.10588235294117647" d="M 188.5 103 Q 189.8 102.8 190 103.5 Q 189.8 104.3 188.5 104 Q 187.5 103.5 188.5 103 Z "/><path fill="rgb(161,94,208)" stroke="rgb(161,94,208)" stroke-width="1" opacity="0.10588235294117647" d="M 192.5 103 Q 193.5 103.5 192.5 104 Q 191.5 103.5 192.5 103 Z "/><path fill="rgb(161,94,208)" stroke="rgb(161,94,208)" stroke-width="1" opacity="0.10588235294117647" d="M 200.5 103 Q 201.5 103.5 200.5 104 Q 199.5 103.5 200.5 103 Z "/><path fill="rgb(161,94,208)" stroke="rgb(161,94,208)" stroke-width="1" opacity="0.10588235294117647" d="M 202.5 103 Q 203.5 103.5 202.5 104 Q 201.5 103.5 202.5 103 Z "/><path fill="rgb(161,94,208)" stroke="rgb(161,94,208)" stroke-width="1" opacity="0.10588235294117647" d="M 205.5 103 L 210.5 103 L 211.5 104 L 213.5 104 L 214 104.5 L 213.5 105 L 211.5 105 L 210.5 104 L 205.5 104 Q 204.5 103.5 205.5 103 Z "/><path fill="rgb(161,94,208)" stroke="rgb(161,94,208)" stroke-width="1" opacity="0.10588235294117647" d="M 167.5 105 L 168.5 106 L 169.5 106 L 170.5 107 L 171.5 107 L 173.5 109 L 174.5 109 L 176.5 111 L 177.5 111 L 178.5 112 L 179.5 112 L 181.5 114 L 182.5 114 L 183.5 115 Q 184.8 115 185 115 L 185 115.5 Q 185 116.8 185 117 Q 185.3 117 186.5 117 L 187.5 118 L 188.5 118 L 190 119.5 L 189.5 120 L 188.5 119 L 187.5 119 L 186.5 118 L 185.5 118 L 182.5 115 L 181.5 115 L 180.5 114 L 179.5 114 L 177.5 112 L 176.5 112 L 174.5 110 L 173.5 110 L 172.5 109 L 171.5 109 L 169.5 107 L 168.5 107 L 167 105.5 L 167.5 105 Z "/><path fill="rgb(161,94,208)" stroke="rgb(161,94,208)" stroke-width="1" opacity="0.10588235294117647" d="M 215.5 105 L 216.5 105 L 217.5 106 L 218.5 106 L 219.5 107 L 220.5 107 L 223 109.5 L 222.5 110 L 221.5 109 L 220.5 109 L 218.5 107 L 217.5 107 L 216.5 106 L 215.5 106 Q 214.5 105.5 215.5 105 Z "/><path fill="rgb(161,94,208)" stroke="rgb(161,94,208)" stroke-width="1" opacity="0.10588235294117647" d="M 224.5 110 L 227 112.5 L 227 113.5 L 230 116.5 L 230 117.5 L 231 118.5 L 230.5 119 L 229 117.5 L 229 116.5 L 226 113.5 Q 226 112.3 226 112 L 225.5 112 Q 224.3 112 224 112 Q 224 111.8 224 110.5 L 224.5 110 Z "/><path fill="rgb(161,94,208)" stroke="rgb(161,94,208)" stroke-width="1" opacity="0.10588235294117647" d="M 191.5 120 L 192.5 120 L 195.5 123 L 197.5 123 L 199.5 125 L 200.5 125 L 203.5 128 L 204.5 128 L 206 129.5 L 205.5 130 L 204.5 129 L 203.5 129 L 201.5 127 L 200.5 127 L 198.5 125 L 197.5 125 L 196.5 124 L 195.5 124 L 193.5 122 L 192.5 122 L 191 120.5 L 191.5 120 Z "/><path fill="rgb(161,94,208)" stroke="rgb(161,94,208)" stroke-width="1" opacity="0.10588235294117647" d="M 231.5 120 Q 232.5 120.5 231.5 121 Q 230.5 120.5 231.5 120 Z "/><path fill="rgb(161,94,208)" stroke="rgb(161,94,208)" stroke-width="1" opacity="0.10588235294117647" d="M 232.5 122 Q 233.3 122.3 233 123.5 Q 232.5 124.5 232 123.5 Q 231.8 122.3 232.5 122 Z "/><path fill="rgb(161,94,208)" stroke="rgb(161,94,208)" stroke-width="1" opacity="0.10588235294117647" d="M 233.5 125 L 234 125.5 L 234 130.5 L 235 131.5 L 235 135.5 L 234 136.5 Q 234.3 137.8 233.5 138 Q 232.8 137.8 233 136.5 L 234 135.5 L 234 131.5 L 233 130.5 L 233 125.5 L 233.5 125 Z "/><path fill="rgb(161,94,208)" stroke="rgb(161,94,208)" stroke-width="1" opacity="0.10588235294117647" d="M 207.5 130 L 209 131.5 L 208.5 132 L 207 130.5 L 207.5 130 Z "/><path fill="rgb(161,94,208)" stroke="rgb(161,94,208)" stroke-width="1" opacity="0.10588235294117647" d="M 209.5 133 Q 210.3 133.3 210 134.5 Q 209.5 135.5 209 134.5 Q 208.8 133.3 209.5 133 Z "/><path fill="rgb(161,94,208)" stroke="rgb(161,94,208)" stroke-width="1" opacity="0.10588235294117647" d="M 209.5 136 Q 210.3 136.3 210 137.5 L 205.5 142 L 204.5 142 L 203.5 143 L 202.5 143 L 200.5 145 L 199.5 145 L 198.5 146 L 198 145.5 L 199.5 144 L 200.5 144 L 202.5 142 L 203.5 142 L 204.5 141 L 205.5 141 L 209 137.5 Q 208.8 136.3 209.5 136 Z "/><path fill="rgb(161,94,208)" stroke="rgb(161,94,208)" stroke-width="1" opacity="0.10588235294117647" d="M 288.5 137 Q 289.5 137.5 288.5 138 Q 287.5 137.5 288.5 137 Z "/><path fill="rgb(161,94,208)" stroke="rgb(161,94,208)" stroke-width="1" opacity="0.10588235294117647" d="M 160.5 138 L 161 138.5 L 161 140.5 Q 160.5 141.5 160 140.5 L 160 138.5 L 160.5 138 Z "/><path fill="rgb(161,94,208)" stroke="rgb(161,94,208)" stroke-width="1" opacity="0.10588235294117647" d="M 233.5 139 L 234 139.5 L 234 142.5 L 233 143.5 Q 233 144.8 233 145 Q 232.8 145 231.5 145 L 231 144.5 L 233 142.5 L 233 139.5 L 233.5 139 Z "/><path fill="rgb(161,94,208)" stroke="rgb(161,94,208)" stroke-width="1" opacity="0.10588235294117647" d="M 287 139 Q 287.3 139 288.5 139 L 289 139.5 L 288 140.5 L 288 144.5 L 287 145.5 L 287 150.5 L 286 151.5 Q 286.3 152.8 285.5 153 Q 284.8 152.8 285 151.5 L 286 150.5 L 286 145.5 L 287 144.5 L 287 139.5 L 287 139 Z "/><path fill="rgb(161,94,208)" stroke="rgb(161,94,208)" stroke-width="1" opacity="0.10588235294117647" d="M 196.5 146 Q 197.5 146.5 196.5 147 Q 195.5 146.5 196.5 146 Z "/><path fill="rgb(161,94,208)" stroke="rgb(161,94,208)" stroke-width="1" opacity="0.10588235294117647" d="M 231.5 146 Q 232.5 146.5 231.5 147 Q 230.5 146.5 231.5 146 Z "/><path fill="rgb(161,94,208)" stroke="rgb(161,94,208)" stroke-width="1" opacity="0.10588235294117647" d="M 194.5 147 L 195 147.5 L 193.5 149 L 193 148.5 L 194.5 147 Z "/><path fill="rgb(161,94,208)" stroke="rgb(161,94,208)" stroke-width="1" opacity="0.10588235294117647" d="M 230.5 148 L 231 148.5 L 230 149.5 L 230 150.5 L 226.5 154 L 226 153.5 L 229 150.5 L 229 149.5 L 230.5 148 Z "/><path fill="rgb(161,94,208)" stroke="rgb(161,94,208)" stroke-width="1" opacity="0.10588235294117647" d="M 191.5 149 Q 192.5 149.5 191.5 150 Q 190.5 149.5 191.5 149 Z "/><path fill="rgb(161,94,208)" stroke="rgb(161,94,208)" stroke-width="1" opacity="0.10588235294117647" d="M 189.5 150 L 190 150.5 L 188.5 152 L 188 151.5 L 189.5 150 Z "/><path fill="rgb(161,94,208)" stroke="rgb(161,94,208)" stroke-width="1" opacity="0.10588235294117647" d="M 186.5 152 L 187 152.5 L 185.5 154 L 185 153.5 L 186.5 152 Z "/><path fill="rgb(161,94,208)" stroke="rgb(161,94,208)" stroke-width="1" opacity="0.10588235294117647" d="M 183.5 154 Q 184.5 154.5 183.5 155 Q 182.5 154.5 183.5 154 Z "/><path fill="rgb(161,94,208)" stroke="rgb(161,94,208)" stroke-width="1" opacity="0.10588235294117647" d="M 285.5 154 L 286 154.5 L 285 155.5 L 285 157.5 L 284 158.5 L 284 160.5 L 283 161.5 L 283 163.5 L 282 164.5 L 282 166.5 L 280 168.5 L 280 169.5 L 279 170.5 L 279 171.5 L 278 172.5 L 278 173.5 L 277 174.5 L 277 175.5 L 274 178.5 L 274 179.5 L 270.5 183 L 270 182.5 L 273 179.5 L 273 178.5 L 276 175.5 L 276 174.5 L 277 173.5 L 277 172.5 L 278 171.5 L 278 170.5 L 279 169.5 L 279 168.5 L 280 167.5 L 280 166.5 L 281 165.5 L 281 164.5 L 282 163.5 L 282 161.5 L 283 160.5 L 283 158.5 L 284 157.5 L 284 155.5 L 285.5 154 Z "/><path fill="rgb(161,94,208)" stroke="rgb(161,94,208)" stroke-width="1" opacity="0.10588235294117647" d="M 160.5 155 L 161 155.5 L 161 164.5 Q 160.5 165.5 160 164.5 L 160 155.5 L 160.5 155 Z "/><path fill="rgb(161,94,208)" stroke="rgb(161,94,208)" stroke-width="1" opacity="0.10588235294117647" d="M 181.5 155 L 182 155.5 L 180.5 157 L 180 156.5 L 181.5 155 Z "/><path fill="rgb(161,94,208)" stroke="rgb(161,94,208)" stroke-width="1" opacity="0.10588235294117647" d="M 223.5 156 L 224 156.5 L 222.5 158 L 222 157.5 L 223.5 156 Z "/><path fill="rgb(161,94,208)" stroke="rgb(161,94,208)" stroke-width="1" opacity="0.10588235294117647" d="M 220.5 158 L 221 158.5 L 219.5 160 L 219 159.5 L 220.5 158 Z "/><path fill="rgb(161,94,208)" stroke="rgb(161,94,208)" stroke-width="1" opacity="0.10588235294117647" d="M 175.5 159 Q 176.5 159.5 175.5 160 Q 174.5 159.5 175.5 159 Z "/><path fill="rgb(161,94,208)" stroke="rgb(161,94,208)" stroke-width="1" opacity="0.10588235294117647" d="M 215.5 160 L 216 160.5 L 214.5 162 L 214 161.5 L 215.5 160 Z "/><path fill="rgb(161,94,208)" stroke="rgb(161,94,208)" stroke-width="1" opacity="0.10588235294117647" d="M 217.5 160 Q 218.5 160.5 217.5 161 Q 216.5 160.5 217.5 160 Z "/><path fill="rgb(161,94,208)" stroke="rgb(161,94,208)" stroke-width="1" opacity="0.10588235294117647" d="M 172.5 161 Q 173.5 161.5 172.5 162 Q 171.5 161.5 172.5 161 Z "/><path fill="rgb(161,94,208)" stroke="rgb(161,94,208)" stroke-width="1" opacity="0.10588235294117647" d="M 211.5 161 Q 212.3 161.3 212 162.5 Q 211.5 163.5 211 162.5 Q 210.8 161.3 211.5 161 Z "/><path fill="rgb(161,94,208)" stroke="rgb(161,94,208)" stroke-width="1" opacity="0.10588235294117647" d="M 170.5 162 Q 171.5 162.5 170.5 163 Q 169.5 162.5 170.5 162 Z "/><path fill="rgb(161,94,208)" stroke="rgb(161,94,208)" stroke-width="1" opacity="0.10588235294117647" d="M 194.5 162 L 208.5 162 L 209 162.5 L 208.5 163 L 194.5 163 L 193.5 164 L 193 163.5 L 194.5 162 Z "/><path fill="rgb(161,94,208)" stroke="rgb(161,94,208)" stroke-width="1" opacity="0.10588235294117647" d="M 167.5 164 Q 168.5 164.5 167.5 165 Q 166.5 164.5 167.5 164 Z "/><path fill="rgb(161,94,208)" stroke="rgb(161,94,208)" stroke-width="1" opacity="0.10588235294117647" d="M 191.5 164 Q 192.5 164.5 191.5 165 Q 190.5 164.5 191.5 164 Z "/><path fill="rgb(161,94,208)" stroke="rgb(161,94,208)" stroke-width="1" opacity="0.10588235294117647" d="M 189.5 165 Q 190.5 165.5 189.5 166 Q 188.5 165.5 189.5 165 Z "/><path fill="rgb(161,94,208)" stroke="rgb(161,94,208)" stroke-width="1" opacity="0.10588235294117647" d="M 187.5 166 L 188 166.5 L 186.5 168 L 186 167.5 L 187.5 166 Z "/><path fill="rgb(161,94,208)" stroke="rgb(161,94,208)" stroke-width="1" opacity="0.10588235294117647" d="M 184.5 168 L 185 168.5 L 183.5 170 L 183 169.5 L 184.5 168 Z "/><path fill="rgb(161,94,208)" stroke="rgb(161,94,208)" stroke-width="1" opacity="0.10588235294117647" d="M 181.5 170 Q 182.5 170.5 181.5 171 Q 180.5 170.5 181.5 170 Z "/><path fill="rgb(161,94,208)" stroke="rgb(161,94,208)" stroke-width="1" opacity="0.10588235294117647" d="M 179.5 171 L 180 171.5 L 178.5 173 L 178 172.5 L 179.5 171 Z "/><path fill="rgb(161,94,208)" stroke="rgb(161,94,208)" stroke-width="1" opacity="0.10588235294117647" d="M 175.5 174 Q 176.5 174.5 175.5 175 Q 174.5 174.5 175.5 174 Z "/><path fill="rgb(161,94,208)" stroke="rgb(161,94,208)" stroke-width="1" opacity="0.10588235294117647" d="M 171.5 176 L 172 176.5 L 170.5 178 L 170 177.5 L 171.5 176 Z "/><path fill="rgb(161,94,208)" stroke="rgb(161,94,208)" stroke-width="1" opacity="0.10588235294117647" d="M 151.5 182 L 152.5 183 Q 153.8 182.8 154 183.5 Q 153.8 184.3 152.5 184 L 151 182.5 L 151.5 182 Z "/><path fill="rgb(161,94,208)" stroke="rgb(161,94,208)" stroke-width="1" opacity="0.10588235294117647" d="M 155.5 183 L 157.5 183 L 158 183.5 L 157.5 184 L 155.5 184 Q 154.5 183.5 155.5 183 Z "/><path fill="rgb(161,94,208)" stroke="rgb(161,94,208)" stroke-width="1" opacity="0.10588235294117647" d="M 269.5 184 L 270 184.5 L 267 187.5 Q 267 188.8 267 189 Q 266.8 189 265.5 189 L 258.5 196 L 258 195.5 L 269.5 184 Z "/><path fill="rgb(161,94,208)" stroke="rgb(161,94,208)" stroke-width="1" opacity="0.10588235294117647" d="M 81.5 189 Q 82.3 189.3 82 190.5 L 83 191.5 L 83 204.5 L 82 205.5 L 82 207.5 L 81.5 208 L 81 207.5 L 81 203.5 L 82 202.5 L 82 194.5 L 81 193.5 L 81 189.5 L 81.5 189 Z "/><path fill="rgb(161,94,208)" stroke="rgb(161,94,208)" stroke-width="1" opacity="0.10588235294117647" d="M 255.5 197 L 256 197.5 L 253.5 200 L 253 199.5 L 255.5 197 Z "/><path fill="rgb(161,94,208)" stroke="rgb(161,94,208)" stroke-width="1" opacity="0.10588235294117647" d="M 251.5 200 Q 252.5 200.5 251.5 201 Q 250.5 200.5 251.5 200 Z "/><path fill="rgb(161,94,208)" stroke="rgb(161,94,208)" stroke-width="1" opacity="0.10588235294117647" d="M 248.5 202 L 249 202.5 L 247.5 204 Q 246.3 204.3 246 203.5 Q 246.3 202.8 247.5 203 L 248.5 202 Z "/><path fill="rgb(161,94,208)" stroke="rgb(161,94,208)" stroke-width="1" opacity="0.10588235294117647" d="M 240.5 206 Q 241.5 206.5 240.5 207 Q 239.5 206.5 240.5 206 Z "/><path fill="rgb(161,94,208)" stroke="rgb(161,94,208)" stroke-width="1" opacity="0.10588235294117647" d="M 236.5 208 L 237 208.5 L 235.5 210 L 235 209.5 L 236.5 208 Z "/><path fill="rgb(161,94,208)" stroke="rgb(161,94,208)" stroke-width="1" opacity="0.10588235294117647" d="M 233.5 209 Q 234.5 209.5 233.5 210 Q 232.5 209.5 233.5 209 Z "/><path fill="rgb(161,94,208)" stroke="rgb(161,94,208)" stroke-width="1" opacity="0.10588235294117647" d="M 229.5 210 Q 230.5 210.5 229.5 211 Q 228.5 210.5 229.5 210 Z "/><path fill="rgb(161,94,208)" stroke="rgb(161,94,208)" stroke-width="1" opacity="0.10588235294117647" d="M 231.5 210 Q 232.5 210.5 231.5 211 Q 230.5 210.5 231.5 210 Z "/><path fill="rgb(161,94,208)" stroke="rgb(161,94,208)" stroke-width="1" opacity="0.10588235294117647" d="M 81.5 211 L 83.5 213 L 86.5 213 L 87 213.5 L 86.5 214 L 82.5 214 L 81 212.5 Q 80.8 211.3 81.5 211 Z "/><path fill="rgb(161,94,208)" stroke="rgb(161,94,208)" stroke-width="1" opacity="0.10588235294117647" d="M 225.5 211 Q 226.8 210.8 227 211.5 Q 226.8 212.3 225.5 212 Q 224.5 211.5 225.5 211 Z "/><path fill="rgb(161,94,208)" stroke="rgb(161,94,208)" stroke-width="1" opacity="0.10588235294117647" d="M 89.5 213 Q 90.8 212.8 91 213.5 Q 90.8 214.3 89.5 214 Q 88.5 213.5 89.5 213 Z "/><path fill="rgb(161,94,208)" stroke="rgb(161,94,208)" stroke-width="1" opacity="0.10588235294117647" d="M 105.5 213 L 108.5 213 L 109 213.5 L 108.5 214 L 105.5 214 Q 104.5 213.5 105.5 213 Z "/><path fill="rgb(161,94,208)" stroke="rgb(161,94,208)" stroke-width="1" opacity="0.10588235294117647" d="M 213.5 213 L 215.5 213 L 216 213.5 L 215.5 214 L 213.5 214 Q 212.5 213.5 213.5 213 Z "/><path fill="rgb(161,94,208)" stroke="rgb(161,94,208)" stroke-width="1" opacity="0.10588235294117647" d="M 180.5 214 L 188.5 214 L 189 214.5 L 188.5 215 L 181.5 215 L 180.5 216 L 179.5 216 L 179 215.5 L 180.5 214 Z "/><path fill="rgb(161,94,208)" stroke="rgb(161,94,208)" stroke-width="1" opacity="0.10588235294117647" d="M 111.5 217 L 112 217.5 L 112 220.5 Q 111.5 221.5 111 220.5 L 111 217.5 L 111.5 217 Z "/><path fill="rgb(161,94,208)" stroke="rgb(161,94,208)" stroke-width="1" opacity="0.10588235294117647" d="M 40.5 245 Q 41.5 245.5 40.5 246 Q 39.5 245.5 40.5 245 Z "/><path fill="rgb(161,94,208)" stroke="rgb(161,94,208)" stroke-width="1" opacity="0.10588235294117647" d="M 55.5 259 Q 56.5 259.5 55.5 260 Q 54.5 259.5 55.5 259 Z "/><path fill="rgb(161,94,208)" stroke="rgb(161,94,208)" stroke-width="1" opacity="0.10588235294117647" d="M 71.5 266 Q 72.5 266.5 71.5 267 Q 70.5 266.5 71.5 266 Z "/><path fill="rgb(161,94,208)" stroke="rgb(161,94,208)" stroke-width="1" opacity="0.10588235294117647" d="M 78.5 268 Q 79.8 267.8 80 268.5 Q 79.8 269.3 78.5 269 Q 77.5 268.5 78.5 268 Z "/><path fill="rgb(161,94,208)" stroke="rgb(161,94,208)" stroke-width="1" opacity="0.10588235294117647" d="M 82.5 269 Q 83.5 269.5 82.5 270 Q 81.5 269.5 82.5 269 Z "/><path fill="rgb(109,99,197)" stroke="rgb(109,99,197)" stroke-width="1" opacity="0.996078431372549" d="M 40.5 52 Q 41.5 52.5 40.5 53 Q 39.5 52.5 40.5 52 Z "/><path fill="rgb(109,99,197)" stroke="rgb(109,99,197)" stroke-width="1" opacity="0.996078431372549" d="M 125.5 52 L 126 52.5 L 126 54.5 Q 125.5 55.5 125 54.5 L 125 52.5 L 125.5 52 Z "/><path fill="rgb(109,99,197)" stroke="rgb(109,99,197)" stroke-width="1" opacity="0.996078431372549" d="M 218.5 52 Q 219.8 51.8 220 52.5 Q 219.8 53.3 218.5 53 Q 217.5 52.5 218.5 52 Z "/><path fill="rgb(109,99,197)" stroke="rgb(109,99,197)" stroke-width="1" opacity="0.996078431372549" d="M 222.5 53 Q 223.8 52.8 224 53.5 Q 223.8 54.3 222.5 54 Q 221.5 53.5 222.5 53 Z "/><path fill="rgb(109,99,197)" stroke="rgb(109,99,197)" stroke-width="1" opacity="0.996078431372549" d="M 46.5 54 L 48.5 54 L 49.5 55 L 50.5 55 L 51.5 56 Q 52.8 55.8 53 56.5 Q 52.8 57.3 51.5 57 L 50.5 56 L 48.5 56 L 47.5 55 L 46.5 55 Q 45.5 54.5 46.5 54 Z "/><path fill="rgb(109,99,197)" stroke="rgb(109,99,197)" stroke-width="1" opacity="0.996078431372549" d="M 227.5 54 Q 228.5 54.5 227.5 55 Q 226.5 54.5 227.5 54 Z "/><path fill="rgb(109,99,197)" stroke="rgb(109,99,197)" stroke-width="1" opacity="0.996078431372549" d="M 230.5 55 Q 231.5 55.5 230.5 56 Q 229.5 55.5 230.5 55 Z "/><path fill="rgb(109,99,197)" stroke="rgb(109,99,197)" stroke-width="1" opacity="0.996078431372549" d="M 234.5 56 Q 235.8 55.8 236 56.5 Q 235.8 57.3 234.5 57 Q 233.5 56.5 234.5 56 Z "/><path fill="rgb(109,99,197)" stroke="rgb(109,99,197)" stroke-width="1" opacity="0.996078431372549" d="M 54.5 57 L 55.5 58 L 56.5 58 L 57.5 59 L 58.5 59 L 61.5 62 Q 62.8 61.8 63 62.5 Q 62.8 63.3 61.5 63 L 59.5 61 L 58.5 61 L 56.5 59 L 55.5 59 L 54 57.5 L 54.5 57 Z "/><path fill="rgb(109,99,197)" stroke="rgb(109,99,197)" stroke-width="1" opacity="0.996078431372549" d="M 237.5 57 L 238.5 57 L 239.5 58 L 240.5 58 L 242 59.5 L 241.5 60 L 240.5 59 L 238.5 59 L 237 57.5 L 237.5 57 Z "/><path fill="rgb(109,99,197)" stroke="rgb(109,99,197)" stroke-width="1" opacity="0.996078431372549" d="M 243.5 60 Q 244.8 59.8 245 60.5 Q 244.8 61.3 243.5 61 Q 242.5 60.5 243.5 60 Z "/><path fill="rgb(109,99,197)" stroke="rgb(109,99,197)" stroke-width="1" opacity="0.996078431372549" d="M 247.5 62 L 249 63.5 L 248.5 64 L 247 62.5 L 247.5 62 Z "/><path fill="rgb(109,99,197)" stroke="rgb(109,99,197)" stroke-width="1" opacity="0.996078431372549" d="M 125.5 64 L 126 64.5 L 126 68.5 Q 125.5 69.5 125 68.5 L 125 64.5 L 125.5 64 Z "/><path fill="rgb(109,99,197)" stroke="rgb(109,99,197)" stroke-width="1" opacity="0.996078431372549" d="M 65.5 65 L 68 67.5 L 67.5 68 L 65 65.5 L 65.5 65 Z "/><path fill="rgb(109,99,197)" stroke="rgb(109,99,197)" stroke-width="1" opacity="0.996078431372549" d="M 251.5 65 Q 252.5 65.5 251.5 66 Q 250.5 65.5 251.5 65 Z "/><path fill="rgb(109,99,197)" stroke="rgb(109,99,197)" stroke-width="1" opacity="0.996078431372549" d="M 257.5 69 L 258.5 70 Q 259.8 69.8 260 70.5 Q 259.8 71.3 258.5 71 L 257 69.5 L 257.5 69 Z "/><path fill="rgb(109,99,197)" stroke="rgb(109,99,197)" stroke-width="1" opacity="0.996078431372549" d="M 71.5 72 L 73 73.5 L 73 74.5 L 74 75.5 L 74 76.5 L 75 77.5 L 74.5 78 L 73 76.5 L 73 75.5 L 71 73.5 Q 70.8 72.3 71.5 72 Z "/><path fill="rgb(109,99,197)" stroke="rgb(109,99,197)" stroke-width="1" opacity="0.996078431372549" d="M 261.5 72 L 267 77.5 L 267 78.5 Q 266.5 79.5 266 78.5 L 266 77.5 L 264.5 76 Q 263.3 76 263 76 L 263 75.5 Q 263 74.3 263 74 L 262.5 74 Q 261.3 74 261 74 Q 261 73.8 261 72.5 L 261.5 72 Z "/><path fill="rgb(109,99,197)" stroke="rgb(109,99,197)" stroke-width="1" opacity="0.996078431372549" d="M 125.5 77 L 126 77.5 L 126 83.5 Q 125.5 84.5 125 83.5 L 125 77.5 L 125.5 77 Z "/><path fill="rgb(109,99,197)" stroke="rgb(109,99,197)" stroke-width="1" opacity="0.996078431372549" d="M 75.5 79 Q 76.3 79.3 76 80.5 L 77 81.5 L 77 82.5 L 78 83.5 L 78 84.5 Q 77.5 85.5 77 84.5 L 77 83.5 L 76 82.5 L 76 81.5 L 75 80.5 Q 74.8 79.3 75.5 79 Z "/><path fill="rgb(109,99,197)" stroke="rgb(109,99,197)" stroke-width="1" opacity="0.996078431372549" d="M 268.5 80 L 270 81.5 L 269.5 82 L 268 80.5 L 268.5 80 Z "/><path fill="rgb(109,99,197)" stroke="rgb(109,99,197)" stroke-width="1" opacity="0.996078431372549" d="M 271.5 84 L 275 87.5 L 275 88.5 L 277 90.5 L 277 91.5 L 278 92.5 L 278 93.5 L 279 94.5 L 279 95.5 L 280 96.5 L 279.5 97 L 278 95.5 L 278 94.5 L 277 93.5 L 277 92.5 L 275 90.5 L 275 89.5 L 274 88.5 L 274 87.5 L 271 84.5 L 271.5 84 Z "/><path fill="rgb(109,99,197)" stroke="rgb(109,99,197)" stroke-width="1" opacity="0.996078431372549" d="M 152.5 85 Q 153.8 84.8 154 85.5 Q 153.8 86.3 152.5 86 L 150 88.5 L 150 89.5 L 149 90.5 Q 149.3 91.8 148.5 92 Q 147.8 91.8 148 90.5 L 149 89.5 L 149 88.5 L 150 87.5 Q 150 86.3 150 86 Q 150.3 86 151.5 86 L 152.5 85 Z "/><path fill="rgb(109,99,197)" stroke="rgb(109,99,197)" stroke-width="1" opacity="0.996078431372549" d="M 158.5 85 L 160.5 85 L 162.5 87 L 163.5 87 L 164.5 88 L 165.5 88 L 167.5 90 L 168.5 90 L 169.5 91 L 170.5 91 L 172.5 93 L 173.5 93 L 175.5 95 L 176.5 95 L 177.5 96 L 178.5 96 L 180.5 98 L 181.5 98 L 183.5 100 L 184.5 100 L 185.5 101 L 186.5 101 L 187.5 102 L 205.5 102 L 206 102.5 L 205.5 103 L 187.5 103 L 186.5 102 L 185.5 102 L 184.5 101 L 183.5 101 L 181.5 99 L 180.5 99 L 179.5 98 L 178.5 98 L 176.5 96 L 175.5 96 L 174.5 95 L 173.5 95 L 171.5 93 L 170.5 93 L 169.5 92 L 168.5 92 L 166.5 90 L 165.5 90 L 163.5 88 L 162.5 88 L 160.5 86 L 158.5 86 Q 157.5 85.5 158.5 85 Z "/><path fill="rgb(109,99,197)" stroke="rgb(109,99,197)" stroke-width="1" opacity="0.996078431372549" d="M 78.5 86 L 79 86.5 L 79 88.5 L 80 89.5 L 80 91.5 Q 79.5 92.5 79 91.5 L 79 89.5 L 78 88.5 L 78 86.5 L 78.5 86 Z "/><path fill="rgb(109,99,197)" stroke="rgb(109,99,197)" stroke-width="1" opacity="0.996078431372549" d="M 125.5 92 L 126 92.5 L 126 267.5 Q 125.5 268.5 125 267.5 L 125 92.5 L 125.5 92 Z "/><path fill="rgb(109,99,197)" stroke="rgb(109,99,197)" stroke-width="1" opacity="0.996078431372549" d="M 80.5 95 L 81 95.5 L 81 175.5 Q 80.5 176.5 80 175.5 L 80 95.5 L 80.5 95 Z "/><path fill="rgb(109,99,197)" stroke="rgb(109,99,197)" stroke-width="1" opacity="0.996078431372549" d="M 280.5 98 Q 281.3 98.3 281 99.5 Q 280.5 100.5 280 99.5 Q 279.8 98.3 280.5 98 Z "/><path fill="rgb(109,99,197)" stroke="rgb(109,99,197)" stroke-width="1" opacity="0.996078431372549" d="M 281.5 101 Q 282.3 101.3 282 102.5 Q 281.5 103.5 281 102.5 Q 280.8 101.3 281.5 101 Z "/><path fill="rgb(109,99,197)" stroke="rgb(109,99,197)" stroke-width="1" opacity="0.996078431372549" d="M 211.5 103 L 213.5 103 L 214.5 104 Q 215.8 103.8 216 104.5 Q 215.8 105.3 214.5 105 L 213.5 104 L 211.5 104 Q 210.5 103.5 211.5 103 Z "/><path fill="rgb(109,99,197)" stroke="rgb(109,99,197)" stroke-width="1" opacity="0.996078431372549" d="M 163.5 104 L 164.5 104 L 165.5 105 L 166.5 105 L 168.5 107 L 169.5 107 L 171 108.5 L 170.5 109 L 169.5 108 L 168.5 108 L 167.5 107 L 166.5 107 L 164.5 105 L 163.5 105 Q 162.5 104.5 163.5 104 Z "/><path fill="rgb(109,99,197)" stroke="rgb(109,99,197)" stroke-width="1" opacity="0.996078431372549" d="M 282.5 104 Q 283.5 104.5 282.5 105 Q 281.5 104.5 282.5 104 Z "/><path fill="rgb(109,99,197)" stroke="rgb(109,99,197)" stroke-width="1" opacity="0.996078431372549" d="M 217.5 105 L 218.5 105 L 219.5 106 L 220.5 106 L 222.5 108 Q 223.8 108 224 108 Q 224 108.3 224 109.5 L 223.5 110 L 220.5 107 L 219.5 107 L 218.5 106 L 217.5 106 Q 216.5 105.5 217.5 105 Z "/><path fill="rgb(109,99,197)" stroke="rgb(109,99,197)" stroke-width="1" opacity="0.996078431372549" d="M 283.5 106 L 284 106.5 L 284 108.5 L 285 109.5 L 285 110.5 Q 284.5 111.5 284 110.5 L 284 109.5 L 283 108.5 L 283 106.5 L 283.5 106 Z "/><path fill="rgb(109,99,197)" stroke="rgb(109,99,197)" stroke-width="1" opacity="0.996078431372549" d="M 172.5 109 L 173.5 110 L 174.5 110 L 176.5 112 L 177.5 112 L 179 113.5 L 178.5 114 L 177.5 113 L 176.5 113 L 174.5 111 L 172.5 111 L 172 111 Q 172 110.8 172 109.5 L 172.5 109 Z "/><path fill="rgb(109,99,197)" stroke="rgb(109,99,197)" stroke-width="1" opacity="0.996078431372549" d="M 225.5 110 L 227 111.5 L 226.5 112 L 225 110.5 L 225.5 110 Z "/><path fill="rgb(109,99,197)" stroke="rgb(109,99,197)" stroke-width="1" opacity="0.996078431372549" d="M 227.5 113 Q 228.8 113 229 113 Q 229 113.3 229 114.5 L 231 116.5 L 231 117.5 L 232 118.5 L 232 119.5 L 234 121.5 L 234 122.5 L 233.5 123 L 232 121.5 L 232 120.5 L 231 119.5 L 231 118.5 L 230 117.5 L 230 116.5 L 227 113.5 L 227.5 113 Z "/><path fill="rgb(109,99,197)" stroke="rgb(109,99,197)" stroke-width="1" opacity="0.996078431372549" d="M 180.5 114 L 181.5 115 L 182.5 115 L 184 116.5 L 183.5 117 L 182.5 116 L 180.5 116 L 180 116 Q 180 115.8 180 114.5 L 180.5 114 Z "/><path fill="rgb(109,99,197)" stroke="rgb(109,99,197)" stroke-width="1" opacity="0.996078431372549" d="M 285.5 114 Q 286.3 114.3 286 115.5 Q 285.5 116.5 285 115.5 Q 284.8 114.3 285.5 114 Z "/><path fill="rgb(109,99,197)" stroke="rgb(109,99,197)" stroke-width="1" opacity="0.996078431372549" d="M 186.5 118 Q 187.5 118.5 186.5 119 Q 185.5 118.5 186.5 118 Z "/><path fill="rgb(109,99,197)" stroke="rgb(109,99,197)" stroke-width="1" opacity="0.996078431372549" d="M 286.5 118 Q 287.5 118.5 286.5 119 Q 285.5 118.5 286.5 118 Z "/><path fill="rgb(109,99,197)" stroke="rgb(109,99,197)" stroke-width="1" opacity="0.996078431372549" d="M 188.5 119 L 189.5 120 L 190.5 120 L 192 121.5 L 191.5 122 L 190.5 121 L 188.5 121 L 188 121 Q 188 120.8 188 119.5 L 188.5 119 Z "/><path fill="rgb(109,99,197)" stroke="rgb(109,99,197)" stroke-width="1" opacity="0.996078431372549" d="M 193.5 122 Q 194.5 122.5 193.5 123 Q 192.5 122.5 193.5 122 Z "/><path fill="rgb(109,99,197)" stroke="rgb(109,99,197)" stroke-width="1" opacity="0.996078431372549" d="M 286.5 122 Q 287.3 122.3 287 123.5 Q 286.5 124.5 286 123.5 Q 285.8 122.3 286.5 122 Z "/><path fill="rgb(109,99,197)" stroke="rgb(109,99,197)" stroke-width="1" opacity="0.996078431372549" d="M 196.5 124 L 197.5 125 Q 198.8 124.8 199 125.5 L 198.5 126 L 196.5 126 L 196 126 Q 196 125.8 196 124.5 L 196.5 124 Z "/><path fill="rgb(109,99,197)" stroke="rgb(109,99,197)" stroke-width="1" opacity="0.996078431372549" d="M 233.5 124 Q 234.5 124.5 233.5 125 Q 232.5 124.5 233.5 124 Z "/><path fill="rgb(109,99,197)" stroke="rgb(109,99,197)" stroke-width="1" opacity="0.996078431372549" d="M 234.5 126 L 235 126.5 L 235 128.5 Q 234.5 129.5 234 128.5 L 234 126.5 L 234.5 126 Z "/><path fill="rgb(109,99,197)" stroke="rgb(109,99,197)" stroke-width="1" opacity="0.996078431372549" d="M 200.5 127 L 202 128.5 L 201.5 129 L 200 127.5 L 200.5 127 Z "/><path fill="rgb(109,99,197)" stroke="rgb(109,99,197)" stroke-width="1" opacity="0.996078431372549" d="M 204.5 129 L 205.5 130 L 206.5 130 L 209 132.5 Q 209.3 133.8 208.5 134 L 208 133.5 Q 208 132.3 208 132 Q 207.8 132 206.5 132 L 204 129.5 L 204.5 129 Z "/><path fill="rgb(109,99,197)" stroke="rgb(109,99,197)" stroke-width="1" opacity="0.996078431372549" d="M 234.5 130 Q 235.8 130 236 130 L 236 130.5 L 236 135.5 Q 235.5 136.5 235 135.5 L 235 131.5 L 234 130.5 L 234.5 130 Z "/><path fill="rgb(109,99,197)" stroke="rgb(109,99,197)" stroke-width="1" opacity="0.996078431372549" d="M 161.5 135 L 162 135.5 L 162 143.5 Q 161.5 144.5 161 143.5 L 161 135.5 L 161.5 135 Z "/><path fill="rgb(109,99,197)" stroke="rgb(109,99,197)" stroke-width="1" opacity="0.996078431372549" d="M 209.5 135 L 210 135.5 L 209 136.5 L 209 137.5 L 205.5 141 L 204.5 141 L 203.5 142 L 202.5 142 L 200.5 144 L 199.5 144 L 197.5 146 L 196.5 146 L 195.5 147 L 194.5 147 L 192.5 149 L 191.5 149 L 190.5 150 L 190 149.5 L 191.5 148 L 192.5 148 L 194.5 146 L 195.5 146 L 196.5 145 L 197.5 145 L 199.5 143 L 200.5 143 L 202.5 141 L 203.5 141 L 204.5 140 L 205.5 140 L 208 137.5 L 208 136.5 L 209.5 135 Z "/><path fill="rgb(109,99,197)" stroke="rgb(109,99,197)" stroke-width="1" opacity="0.996078431372549" d="M 234.5 138 L 235 138.5 L 235 140.5 Q 234.5 141.5 234 140.5 L 234 138.5 L 234.5 138 Z "/><path fill="rgb(109,99,197)" stroke="rgb(109,99,197)" stroke-width="1" opacity="0.996078431372549" d="M 286.5 139 Q 287.5 139.5 286.5 140 Q 285.5 139.5 286.5 139 Z "/><path fill="rgb(109,99,197)" stroke="rgb(109,99,197)" stroke-width="1" opacity="0.996078431372549" d="M 286.5 141 Q 287.5 141.5 286.5 142 Q 285.5 141.5 286.5 141 Z "/><path fill="rgb(109,99,197)" stroke="rgb(109,99,197)" stroke-width="1" opacity="0.996078431372549" d="M 233.5 143 Q 234.5 143.5 233.5 144 Q 232.5 143.5 233.5 143 Z "/><path fill="rgb(109,99,197)" stroke="rgb(109,99,197)" stroke-width="1" opacity="0.996078431372549" d="M 232.5 145 Q 233.3 145.3 233 146.5 L 232 147.5 L 232 148.5 L 231 149.5 L 231 150.5 L 229 152.5 Q 229 153.8 229 154 L 228.5 154 Q 227.3 154 227 154 Q 227 154.3 227 155.5 L 225.5 157 L 224.5 157 L 223.5 158 L 223 157.5 L 230 150.5 L 230 149.5 L 231 148.5 L 231 147.5 L 232 146.5 Q 231.8 145.3 232.5 145 Z "/><path fill="rgb(109,99,197)" stroke="rgb(109,99,197)" stroke-width="1" opacity="0.996078431372549" d="M 285.5 148 L 286 148.5 L 286 150.5 Q 285.5 151.5 285 150.5 L 285 148.5 L 285.5 148 Z "/><path fill="rgb(109,99,197)" stroke="rgb(109,99,197)" stroke-width="1" opacity="0.996078431372549" d="M 188.5 150 L 189 150.5 L 187.5 152 L 186.5 152 L 184.5 154 L 183.5 154 L 182.5 155 L 182 154.5 L 183.5 153 L 184.5 153 L 186.5 151 L 187.5 151 L 188.5 150 Z "/><path fill="rgb(109,99,197)" stroke="rgb(109,99,197)" stroke-width="1" opacity="0.996078431372549" d="M 161.5 152 L 162 152.5 L 162 165.5 L 162 166 Q 162.3 166 163.5 166 L 164.5 165 L 165.5 165 L 167.5 163 L 168.5 163 L 170.5 161 L 171.5 161 L 172.5 160 L 173 160.5 L 171.5 162 L 170.5 162 L 168.5 164 L 167.5 164 L 165.5 166 L 164.5 166 L 163.5 167 L 161.5 167 L 161 167 L 161 166.5 L 161 152.5 L 161.5 152 Z "/><path fill="rgb(109,99,197)" stroke="rgb(109,99,197)" stroke-width="1" opacity="0.996078431372549" d="M 284.5 153 Q 285.3 153.3 285 154.5 L 284 155.5 L 284 157.5 L 283.5 158 L 283 157.5 L 283 155.5 L 284 154.5 Q 283.8 153.3 284.5 153 Z "/><path fill="rgb(109,99,197)" stroke="rgb(109,99,197)" stroke-width="1" opacity="0.996078431372549" d="M 180.5 155 L 181 155.5 L 178.5 158 L 177.5 158 L 176.5 159 L 175.5 159 L 174.5 160 L 174 159.5 L 175.5 158 L 176.5 158 L 178.5 156 L 179.5 156 L 180.5 155 Z "/><path fill="rgb(109,99,197)" stroke="rgb(109,99,197)" stroke-width="1" opacity="0.996078431372549" d="M 221.5 158 L 222 158.5 L 221 159.5 Q 221 160.8 221 161 L 220.5 161 L 218.5 161 L 217.5 162 L 215.5 162 L 214.5 163 L 212.5 163 L 211.5 164 L 209.5 164 Q 208.5 163.5 209.5 163 L 211.5 163 L 212.5 162 L 214.5 162 L 215.5 161 L 217.5 161 L 218.5 160 L 219.5 160 L 221.5 158 Z "/><path fill="rgb(109,99,197)" stroke="rgb(109,99,197)" stroke-width="1" opacity="0.996078431372549" d="M 282.5 159 Q 283.3 159.3 283 160.5 L 281.5 162 L 281 161.5 L 282 160.5 Q 281.8 159.3 282.5 159 Z "/><path fill="rgb(109,99,197)" stroke="rgb(109,99,197)" stroke-width="1" opacity="0.996078431372549" d="M 194.5 163 L 195 163.5 L 193.5 165 L 192.5 165 L 191.5 166 L 190.5 166 L 189.5 167 L 188.5 167 L 186.5 169 L 185.5 169 L 183.5 171 L 182.5 171 L 181.5 172 L 180.5 172 L 178.5 174 L 177.5 174 L 175.5 176 L 174.5 176 L 173.5 177 L 172.5 177 L 170.5 179 L 169.5 179 L 167.5 181 L 166.5 181 L 165.5 182 L 164.5 182 L 162.5 184 L 161.5 184 L 160.5 185 L 158.5 185 Q 157.5 184.5 158.5 184 L 159.5 184 L 160.5 183 L 161.5 183 L 162.5 182 L 163.5 182 L 164.5 181 L 165.5 181 L 167.5 179 L 168.5 179 L 169.5 178 L 170.5 178 L 172.5 176 L 173.5 176 L 174.5 175 L 175.5 175 L 177.5 173 L 178.5 173 L 180.5 171 L 181.5 171 L 182.5 170 L 183.5 170 L 185.5 168 L 186.5 168 L 188.5 166 L 189.5 166 L 190.5 165 L 191.5 165 L 192.5 164 L 193.5 164 L 194.5 163 Z "/><path fill="rgb(109,99,197)" stroke="rgb(109,99,197)" stroke-width="1" opacity="0.996078431372549" d="M 281.5 163 L 282 163.5 L 281 164.5 Q 281.3 165.8 280.5 166 Q 279.8 165.8 280 164.5 L 281.5 163 Z "/><path fill="rgb(109,99,197)" stroke="rgb(109,99,197)" stroke-width="1" opacity="0.996078431372549" d="M 279.5 167 L 280 167.5 L 279 168.5 Q 279.3 169.8 278.5 170 Q 277.8 169.8 278 168.5 L 279.5 167 Z "/><path fill="rgb(109,99,197)" stroke="rgb(109,99,197)" stroke-width="1" opacity="0.996078431372549" d="M 277.5 171 L 278 171.5 L 277 172.5 L 277 173.5 L 276 174.5 L 276 175.5 L 273 178.5 L 273 179.5 L 270.5 182 L 270 181.5 L 272 179.5 L 272 178.5 L 275 175.5 L 275 174.5 L 276 173.5 L 276 172.5 L 277.5 171 Z "/><path fill="rgb(109,99,197)" stroke="rgb(109,99,197)" stroke-width="1" opacity="0.996078431372549" d="M 148.5 177 L 149 177.5 L 149 179.5 L 150 180.5 L 150 181.5 L 152 183.5 L 151.5 184 L 148 180.5 L 148 177.5 L 148.5 177 Z "/><path fill="rgb(109,99,197)" stroke="rgb(109,99,197)" stroke-width="1" opacity="0.996078431372549" d="M 80.5 180 L 81 180.5 L 81 189.5 Q 80.5 190.5 80 189.5 L 80 180.5 L 80.5 180 Z "/><path fill="rgb(109,99,197)" stroke="rgb(109,99,197)" stroke-width="1" opacity="0.996078431372549" d="M 268 183 Q 268.3 183 269.5 183 L 270 183.5 L 256.5 197 L 256 196.5 Q 256 195.3 256 195 Q 256.3 195 257.5 195 L 268 184.5 Q 268 183.3 268 183 Z "/><path fill="rgb(109,99,197)" stroke="rgb(109,99,197)" stroke-width="1" opacity="0.996078431372549" d="M 153.5 184 Q 154.8 183.8 155 184.5 Q 154.8 185.3 153.5 185 Q 152.5 184.5 153.5 184 Z "/><path fill="rgb(109,99,197)" stroke="rgb(109,99,197)" stroke-width="1" opacity="0.996078431372549" d="M 81.5 198 L 82 198.5 L 82 202.5 Q 81.5 203.5 81 202.5 L 81 198.5 L 81.5 198 Z "/><path fill="rgb(109,99,197)" stroke="rgb(109,99,197)" stroke-width="1" opacity="0.996078431372549" d="M 253.5 198 L 254 198.5 L 252.5 200 L 251.5 200 L 249.5 202 L 248.5 202 L 247.5 203 L 247 202.5 L 248.5 201 L 249.5 201 L 251.5 199 L 252.5 199 L 253.5 198 Z "/><path fill="rgb(109,99,197)" stroke="rgb(109,99,197)" stroke-width="1" opacity="0.996078431372549" d="M 245.5 203 L 246 203.5 L 244.5 205 L 243.5 205 L 242.5 206 L 241.5 206 Q 240.5 205.5 241.5 205 L 242.5 205 L 243.5 204 L 244.5 204 L 245.5 203 Z "/><path fill="rgb(109,99,197)" stroke="rgb(109,99,197)" stroke-width="1" opacity="0.996078431372549" d="M 238.5 206 Q 239.8 205.8 240 206.5 L 238.5 208 L 236.5 208 Q 235.5 207.5 236.5 207 L 237.5 207 L 238.5 206 Z "/><path fill="rgb(109,99,197)" stroke="rgb(109,99,197)" stroke-width="1" opacity="0.996078431372549" d="M 80.5 208 L 81 208.5 L 81 210.5 Q 80.5 211.5 80 210.5 L 80 208.5 L 80.5 208 Z "/><path fill="rgb(109,99,197)" stroke="rgb(109,99,197)" stroke-width="1" opacity="0.996078431372549" d="M 233.5 208 Q 234.8 207.8 235 208.5 Q 234.8 209.3 233.5 209 L 232.5 210 L 231.5 210 Q 230.5 209.5 231.5 209 L 232.5 209 L 233.5 208 Z "/><path fill="rgb(109,99,197)" stroke="rgb(109,99,197)" stroke-width="1" opacity="0.996078431372549" d="M 226.5 210 L 228.5 210 L 229 210.5 L 228.5 211 L 226.5 211 Q 225.5 210.5 226.5 210 Z "/><path fill="rgb(109,99,197)" stroke="rgb(109,99,197)" stroke-width="1" opacity="0.996078431372549" d="M 220.5 211 L 224.5 211 L 225 211.5 L 224.5 212 L 221.5 212 L 220.5 213 L 216.5 213 Q 215.5 212.5 216.5 212 L 219.5 212 L 220.5 211 Z "/><path fill="rgb(109,99,197)" stroke="rgb(109,99,197)" stroke-width="1" opacity="0.996078431372549" d="M 190.5 213 Q 191.5 213.5 190.5 214 Q 189.5 213.5 190.5 213 Z "/><path fill="rgb(109,99,197)" stroke="rgb(109,99,197)" stroke-width="1" opacity="0.996078431372549" d="M 108.5 215 L 109.5 215 L 111 216.5 L 111 267.5 L 109.5 269 L 84.5 269 L 84 268.5 L 84.5 268 L 109.5 268 L 110 268 L 110 267.5 L 110 216.5 L 110 216 Q 109.8 216 108.5 216 Q 107.5 215.5 108.5 215 Z "/><path fill="rgb(109,99,197)" stroke="rgb(109,99,197)" stroke-width="1" opacity="0.996078431372549" d="M 178.5 215 L 179 215.5 L 179 267.5 L 177.5 269 L 127.5 269 Q 126.5 268.5 127.5 268 L 177.5 268 L 178 268 L 178 267.5 L 178 215.5 L 178.5 215 Z "/><path fill="rgb(109,99,197)" stroke="rgb(109,99,197)" stroke-width="1" opacity="0.996078431372549" d="M 32.5 230 L 34 231.5 L 34 233.5 L 36 235.5 L 36 237.5 L 37 238.5 L 37 239.5 L 39 241.5 L 38.5 242 L 36 239.5 L 36 238.5 L 35 237.5 L 35 236.5 L 34 235.5 L 34 234.5 L 33 233.5 L 33 232.5 L 32 231.5 Q 31.8 230.3 32.5 230 Z "/><path fill="rgb(109,99,197)" stroke="rgb(109,99,197)" stroke-width="1" opacity="0.996078431372549" d="M 39.5 243 Q 40.8 243 41 243 Q 41 243.3 41 244.5 L 46 249.5 Q 46 250.8 46 251 Q 46.3 251 47.5 251 L 52.5 256 Q 53.8 256 54 256 Q 54 256.3 54 257.5 L 53.5 258 L 49.5 254 L 48.5 254 L 42 247.5 L 42 246.5 L 39 243.5 L 39.5 243 Z "/><path fill="rgb(109,99,197)" stroke="rgb(109,99,197)" stroke-width="1" opacity="0.996078431372549" d="M 55.5 258 L 57 259.5 L 56.5 260 L 55 258.5 L 55.5 258 Z "/><path fill="rgb(109,99,197)" stroke="rgb(109,99,197)" stroke-width="1" opacity="0.996078431372549" d="M 58.5 260 L 59.5 260 L 60.5 261 L 61.5 261 L 62.5 262 L 63.5 262 L 64.5 263 L 65.5 263 L 67 264.5 L 66.5 265 L 65.5 264 L 64.5 264 L 63.5 263 L 62.5 263 L 61.5 262 L 60.5 262 L 59.5 261 L 58.5 261 Q 57.5 260.5 58.5 260 Z "/><path fill="rgb(109,99,197)" stroke="rgb(109,99,197)" stroke-width="1" opacity="0.996078431372549" d="M 69.5 265 Q 70.8 264.8 71 265.5 Q 70.8 266.3 69.5 266 Q 68.5 265.5 69.5 265 Z "/><path fill="rgb(109,99,197)" stroke="rgb(109,99,197)" stroke-width="1" opacity="0.996078431372549" d="M 72.5 266 L 75.5 266 L 76.5 267 L 78.5 267 L 79 267.5 L 78.5 268 L 75.5 268 L 74.5 267 L 72.5 267 Q 71.5 266.5 72.5 266 Z "/><path fill="rgb(109,99,197)" stroke="rgb(109,99,197)" stroke-width="1" opacity="0.996078431372549" d="M 81.5 268 Q 82.5 268.5 81.5 269 Q 80.5 268.5 81.5 268 Z "/><path fill="rgb(170,85,170)" stroke="rgb(170,85,170)" stroke-width="1" opacity="0.011764705882352941" d="M 31.5 50 Q 32.5 50.5 31.5 51 Q 30.5 50.5 31.5 50 Z "/><path fill="rgb(170,85,170)" stroke="rgb(170,85,170)" stroke-width="1" opacity="0.011764705882352941" d="M 36.5 50 Q 37.5 50.5 36.5 51 Q 35.5 50.5 36.5 50 Z "/><path fill="rgb(170,85,170)" stroke="rgb(170,85,170)" stroke-width="1" opacity="0.011764705882352941" d="M 213.5 50 Q 214.5 50.5 213.5 51 Q 212.5 50.5 213.5 50 Z "/><path fill="rgb(170,85,170)" stroke="rgb(170,85,170)" stroke-width="1" opacity="0.011764705882352941" d="M 42.5 51 Q 43.5 51.5 42.5 52 Q 41.5 51.5 42.5 51 Z "/><path fill="rgb(170,85,170)" stroke="rgb(170,85,170)" stroke-width="1" opacity="0.011764705882352941" d="M 222.5 51 Q 223.5 51.5 222.5 52 Q 221.5 51.5 222.5 51 Z "/><path fill="rgb(170,85,170)" stroke="rgb(170,85,170)" stroke-width="1" opacity="0.011764705882352941" d="M 226.5 52 Q 227.5 52.5 226.5 53 Q 225.5 52.5 226.5 52 Z "/><path fill="rgb(170,85,170)" stroke="rgb(170,85,170)" stroke-width="1" opacity="0.011764705882352941" d="M 48.5 53 Q 49.5 53.5 48.5 54 Q 47.5 53.5 48.5 53 Z "/><path fill="rgb(170,85,170)" stroke="rgb(170,85,170)" stroke-width="1" opacity="0.011764705882352941" d="M 230.5 53 Q 231.5 53.5 230.5 54 Q 229.5 53.5 230.5 53 Z "/><path fill="rgb(170,85,170)" stroke="rgb(170,85,170)" stroke-width="1" opacity="0.011764705882352941" d="M 233.5 54 Q 234.5 54.5 233.5 55 Q 232.5 54.5 233.5 54 Z "/><path fill="rgb(170,85,170)" stroke="rgb(170,85,170)" stroke-width="1" opacity="0.011764705882352941" d="M 239.5 56 Q 240.5 56.5 239.5 57 Q 238.5 56.5 239.5 56 Z "/><path fill="rgb(170,85,170)" stroke="rgb(170,85,170)" stroke-width="1" opacity="0.011764705882352941" d="M 241.5 57 Q 242.5 57.5 241.5 58 Q 240.5 57.5 241.5 57 Z "/><path fill="rgb(170,85,170)" stroke="rgb(170,85,170)" stroke-width="1" opacity="0.011764705882352941" d="M 243.5 58 Q 244.5 58.5 243.5 59 Q 242.5 58.5 243.5 58 Z "/><path fill="rgb(170,85,170)" stroke="rgb(170,85,170)" stroke-width="1" opacity="0.011764705882352941" d="M 253.5 64 Q 254.5 64.5 253.5 65 Q 252.5 64.5 253.5 64 Z "/><path fill="rgb(170,85,170)" stroke="rgb(170,85,170)" stroke-width="1" opacity="0.011764705882352941" d="M 67.5 65 Q 68.5 65.5 67.5 66 Q 66.5 65.5 67.5 65 Z "/><path fill="rgb(170,85,170)" stroke="rgb(170,85,170)" stroke-width="1" opacity="0.011764705882352941" d="M 72.5 71 Q 73.5 71.5 72.5 72 Q 71.5 71.5 72.5 71 Z "/><path fill="rgb(170,85,170)" stroke="rgb(170,85,170)" stroke-width="1" opacity="0.011764705882352941" d="M 74.5 74 Q 75.5 74.5 74.5 75 Q 73.5 74.5 74.5 74 Z "/><path fill="rgb(170,85,170)" stroke="rgb(170,85,170)" stroke-width="1" opacity="0.011764705882352941" d="M 75.5 76 Q 76.5 76.5 75.5 77 Q 74.5 76.5 75.5 76 Z "/><path fill="rgb(170,85,170)" stroke="rgb(170,85,170)" stroke-width="1" opacity="0.011764705882352941" d="M 78.5 82 Q 79.5 82.5 78.5 83 Q 77.5 82.5 78.5 82 Z "/><path fill="rgb(170,85,170)" stroke="rgb(170,85,170)" stroke-width="1" opacity="0.011764705882352941" d="M 274.5 85 Q 275.5 85.5 274.5 86 Q 273.5 85.5 274.5 85 Z "/><path fill="rgb(170,85,170)" stroke="rgb(170,85,170)" stroke-width="1" opacity="0.011764705882352941" d="M 152.5 87 Q 153.5 87.5 152.5 88 Q 151.5 87.5 152.5 87 Z "/><path fill="rgb(170,85,170)" stroke="rgb(170,85,170)" stroke-width="1" opacity="0.011764705882352941" d="M 160.5 87 L 162 88.5 L 161.5 89 L 160 87.5 L 160.5 87 Z "/><path fill="rgb(170,85,170)" stroke="rgb(170,85,170)" stroke-width="1" opacity="0.011764705882352941" d="M 163.5 89 Q 164.5 89.5 163.5 90 Q 162.5 89.5 163.5 89 Z "/><path fill="rgb(170,85,170)" stroke="rgb(170,85,170)" stroke-width="1" opacity="0.011764705882352941" d="M 165.5 90 L 167 91.5 L 166.5 92 L 165 90.5 L 165.5 90 Z "/><path fill="rgb(170,85,170)" stroke="rgb(170,85,170)" stroke-width="1" opacity="0.011764705882352941" d="M 168.5 92 Q 169.5 92.5 168.5 93 Q 167.5 92.5 168.5 92 Z "/><path fill="rgb(170,85,170)" stroke="rgb(170,85,170)" stroke-width="1" opacity="0.011764705882352941" d="M 81.5 93 Q 82.3 93.3 82 94.5 Q 81.5 95.5 81 94.5 Q 80.8 93.3 81.5 93 Z "/><path fill="rgb(170,85,170)" stroke="rgb(170,85,170)" stroke-width="1" opacity="0.011764705882352941" d="M 170.5 93 L 172 94.5 L 171.5 95 L 170 93.5 L 170.5 93 Z "/><path fill="rgb(170,85,170)" stroke="rgb(170,85,170)" stroke-width="1" opacity="0.011764705882352941" d="M 279.5 93 Q 280.5 93.5 279.5 94 Q 278.5 93.5 279.5 93 Z "/><path fill="rgb(170,85,170)" stroke="rgb(170,85,170)" stroke-width="1" opacity="0.011764705882352941" d="M 174.5 96 Q 175.5 96.5 174.5 97 Q 173.5 96.5 174.5 96 Z "/><path fill="rgb(170,85,170)" stroke="rgb(170,85,170)" stroke-width="1" opacity="0.011764705882352941" d="M 176.5 97 Q 177.5 97.5 176.5 98 Q 175.5 97.5 176.5 97 Z "/><path fill="rgb(170,85,170)" stroke="rgb(170,85,170)" stroke-width="1" opacity="0.011764705882352941" d="M 281.5 97 Q 282.5 97.5 281.5 98 Q 280.5 97.5 281.5 97 Z "/><path fill="rgb(170,85,170)" stroke="rgb(170,85,170)" stroke-width="1" opacity="0.011764705882352941" d="M 179.5 99 Q 180.5 99.5 179.5 100 Q 178.5 99.5 179.5 99 Z "/><path fill="rgb(170,85,170)" stroke="rgb(170,85,170)" stroke-width="1" opacity="0.011764705882352941" d="M 181.5 100 L 183 101.5 L 182.5 102 L 181 100.5 L 181.5 100 Z "/><path fill="rgb(170,85,170)" stroke="rgb(170,85,170)" stroke-width="1" opacity="0.011764705882352941" d="M 187.5 103 Q 188.5 103.5 187.5 104 Q 186.5 103.5 187.5 103 Z "/><path fill="rgb(170,85,170)" stroke="rgb(170,85,170)" stroke-width="1" opacity="0.011764705882352941" d="M 190.5 103 Q 191.8 102.8 192 103.5 Q 191.8 104.3 190.5 104 Q 189.5 103.5 190.5 103 Z "/><path fill="rgb(170,85,170)" stroke="rgb(170,85,170)" stroke-width="1" opacity="0.011764705882352941" d="M 193.5 103 L 199.5 103 L 200 103.5 L 199.5 104 L 193.5 104 Q 192.5 103.5 193.5 103 Z "/><path fill="rgb(170,85,170)" stroke="rgb(170,85,170)" stroke-width="1" opacity="0.011764705882352941" d="M 201.5 103 Q 202.5 103.5 201.5 104 Q 200.5 103.5 201.5 103 Z "/><path fill="rgb(170,85,170)" stroke="rgb(170,85,170)" stroke-width="1" opacity="0.011764705882352941" d="M 203.5 103 Q 204.8 102.8 205 103.5 Q 204.8 104.3 203.5 104 Q 202.5 103.5 203.5 103 Z "/><path fill="rgb(170,85,170)" stroke="rgb(170,85,170)" stroke-width="1" opacity="0.011764705882352941" d="M 160.5 104 L 161 104.5 L 161 132.5 L 162 133.5 L 162 134.5 L 161 135.5 L 161 137.5 L 160.5 138 L 160 137.5 L 160 104.5 L 160.5 104 Z "/><path fill="rgb(170,85,170)" stroke="rgb(170,85,170)" stroke-width="1" opacity="0.011764705882352941" d="M 166.5 104 Q 167.5 104.5 166.5 105 Q 165.5 104.5 166.5 104 Z "/><path fill="rgb(170,85,170)" stroke="rgb(170,85,170)" stroke-width="1" opacity="0.011764705882352941" d="M 210.5 104 Q 211.5 104.5 210.5 105 Q 209.5 104.5 210.5 104 Z "/><path fill="rgb(170,85,170)" stroke="rgb(170,85,170)" stroke-width="1" opacity="0.011764705882352941" d="M 168.5 105 Q 169.5 105.5 168.5 106 Q 167.5 105.5 168.5 105 Z "/><path fill="rgb(170,85,170)" stroke="rgb(170,85,170)" stroke-width="1" opacity="0.011764705882352941" d="M 214.5 105 Q 215.5 105.5 214.5 106 Q 213.5 105.5 214.5 105 Z "/><path fill="rgb(170,85,170)" stroke="rgb(170,85,170)" stroke-width="1" opacity="0.011764705882352941" d="M 216.5 106 Q 217.5 106.5 216.5 107 Q 215.5 106.5 216.5 106 Z "/><path fill="rgb(170,85,170)" stroke="rgb(170,85,170)" stroke-width="1" opacity="0.011764705882352941" d="M 173.5 108 Q 174.5 108.5 173.5 109 Q 172.5 108.5 173.5 108 Z "/><path fill="rgb(170,85,170)" stroke="rgb(170,85,170)" stroke-width="1" opacity="0.011764705882352941" d="M 285.5 108 Q 286.5 108.5 285.5 109 Q 284.5 108.5 285.5 108 Z "/><path fill="rgb(170,85,170)" stroke="rgb(170,85,170)" stroke-width="1" opacity="0.011764705882352941" d="M 176.5 110 Q 177.5 110.5 176.5 111 Q 175.5 110.5 176.5 110 Z "/><path fill="rgb(170,85,170)" stroke="rgb(170,85,170)" stroke-width="1" opacity="0.011764705882352941" d="M 223.5 110 Q 224.5 110.5 223.5 111 Q 222.5 110.5 223.5 110 Z "/><path fill="rgb(170,85,170)" stroke="rgb(170,85,170)" stroke-width="1" opacity="0.011764705882352941" d="M 286.5 111 Q 287.5 111.5 286.5 112 Q 285.5 111.5 286.5 111 Z "/><path fill="rgb(170,85,170)" stroke="rgb(170,85,170)" stroke-width="1" opacity="0.011764705882352941" d="M 225.5 112 Q 226.5 112.5 225.5 113 Q 224.5 112.5 225.5 112 Z "/><path fill="rgb(170,85,170)" stroke="rgb(170,85,170)" stroke-width="1" opacity="0.011764705882352941" d="M 181.5 113 Q 182.5 113.5 181.5 114 Q 180.5 113.5 181.5 113 Z "/><path fill="rgb(170,85,170)" stroke="rgb(170,85,170)" stroke-width="1" opacity="0.011764705882352941" d="M 185.5 116 L 186.5 116 L 188 117.5 L 187.5 118 L 186.5 117 Q 185.3 117.3 185 116.5 L 185.5 116 Z "/><path fill="rgb(170,85,170)" stroke="rgb(170,85,170)" stroke-width="1" opacity="0.011764705882352941" d="M 228.5 116 Q 229.5 116.5 228.5 117 Q 227.5 116.5 228.5 116 Z "/><path fill="rgb(170,85,170)" stroke="rgb(170,85,170)" stroke-width="1" opacity="0.011764705882352941" d="M 287.5 116 Q 288.3 116.3 288 117.5 Q 287.5 118.5 287 117.5 Q 286.8 116.3 287.5 116 Z "/><path fill="rgb(170,85,170)" stroke="rgb(170,85,170)" stroke-width="1" opacity="0.011764705882352941" d="M 189.5 118 L 191 119.5 L 190.5 120 L 189 118.5 L 189.5 118 Z "/><path fill="rgb(170,85,170)" stroke="rgb(170,85,170)" stroke-width="1" opacity="0.011764705882352941" d="M 230.5 119 Q 231.5 119.5 230.5 120 Q 229.5 119.5 230.5 119 Z "/><path fill="rgb(170,85,170)" stroke="rgb(170,85,170)" stroke-width="1" opacity="0.011764705882352941" d="M 194.5 121 L 196 122.5 L 195.5 123 L 194 121.5 L 194.5 121 Z "/><path fill="rgb(170,85,170)" stroke="rgb(170,85,170)" stroke-width="1" opacity="0.011764705882352941" d="M 231.5 121 Q 232.5 121.5 231.5 122 Q 230.5 121.5 231.5 121 Z "/><path fill="rgb(170,85,170)" stroke="rgb(170,85,170)" stroke-width="1" opacity="0.011764705882352941" d="M 288.5 123 Q 289.5 123.5 288.5 124 Q 287.5 123.5 288.5 123 Z "/><path fill="rgb(170,85,170)" stroke="rgb(170,85,170)" stroke-width="1" opacity="0.011764705882352941" d="M 232.5 124 Q 233.5 124.5 232.5 125 Q 231.5 124.5 232.5 124 Z "/><path fill="rgb(170,85,170)" stroke="rgb(170,85,170)" stroke-width="1" opacity="0.011764705882352941" d="M 203.5 127 Q 204.5 127.5 203.5 128 Q 202.5 127.5 203.5 127 Z "/><path fill="rgb(170,85,170)" stroke="rgb(170,85,170)" stroke-width="1" opacity="0.011764705882352941" d="M 288.5 127 L 289 127.5 L 289 136.5 Q 288.5 137.5 288 136.5 L 288 127.5 L 288.5 127 Z "/><path fill="rgb(170,85,170)" stroke="rgb(170,85,170)" stroke-width="1" opacity="0.011764705882352941" d="M 205.5 128 L 207 129.5 L 206.5 130 L 205 128.5 L 205.5 128 Z "/><path fill="rgb(170,85,170)" stroke="rgb(170,85,170)" stroke-width="1" opacity="0.011764705882352941" d="M 208.5 130 Q 209.5 130.5 208.5 131 Q 207.5 130.5 208.5 130 Z "/><path fill="rgb(170,85,170)" stroke="rgb(170,85,170)" stroke-width="1" opacity="0.011764705882352941" d="M 233.5 131 Q 234.5 131.5 233.5 132 Q 232.5 131.5 233.5 131 Z "/><path fill="rgb(170,85,170)" stroke="rgb(170,85,170)" stroke-width="1" opacity="0.011764705882352941" d="M 209.5 132 Q 210.5 132.5 209.5 133 Q 208.5 132.5 209.5 132 Z "/><path fill="rgb(170,85,170)" stroke="rgb(170,85,170)" stroke-width="1" opacity="0.011764705882352941" d="M 233.5 135 Q 234.5 135.5 233.5 136 Q 232.5 135.5 233.5 135 Z "/><path fill="rgb(170,85,170)" stroke="rgb(170,85,170)" stroke-width="1" opacity="0.011764705882352941" d="M 124.5 137 L 125 137.5 L 125 267.5 L 125 268 Q 125.3 268 126.5 268 L 127.5 269 L 177.5 269 L 178.5 268 L 179 268.5 L 177.5 270 L 126.5 270 L 124 267.5 L 124 137.5 L 124.5 137 Z "/><path fill="rgb(170,85,170)" stroke="rgb(170,85,170)" stroke-width="1" opacity="0.011764705882352941" d="M 209.5 138 L 210 138.5 L 208.5 140 L 208 139.5 L 209.5 138 Z "/><path fill="rgb(170,85,170)" stroke="rgb(170,85,170)" stroke-width="1" opacity="0.011764705882352941" d="M 233.5 138 Q 234.5 138.5 233.5 139 Q 232.5 138.5 233.5 138 Z "/><path fill="rgb(170,85,170)" stroke="rgb(170,85,170)" stroke-width="1" opacity="0.011764705882352941" d="M 288.5 138 Q 289.5 138.5 288.5 139 Q 287.5 138.5 288.5 138 Z "/><path fill="rgb(170,85,170)" stroke="rgb(170,85,170)" stroke-width="1" opacity="0.011764705882352941" d="M 160.5 141 L 161 141.5 L 161 143.5 L 162 144.5 L 162 151.5 L 161 152.5 L 161 154.5 L 160.5 155 L 160 154.5 L 160 141.5 L 160.5 141 Z "/><path fill="rgb(170,85,170)" stroke="rgb(170,85,170)" stroke-width="1" opacity="0.011764705882352941" d="M 204.5 142 Q 205.5 142.5 204.5 143 Q 203.5 142.5 204.5 142 Z "/><path fill="rgb(170,85,170)" stroke="rgb(170,85,170)" stroke-width="1" opacity="0.011764705882352941" d="M 232.5 142 Q 233.5 142.5 232.5 143 Q 231.5 142.5 232.5 142 Z "/><path fill="rgb(170,85,170)" stroke="rgb(170,85,170)" stroke-width="1" opacity="0.011764705882352941" d="M 202.5 143 Q 203.5 143.5 202.5 144 Q 201.5 143.5 202.5 143 Z "/><path fill="rgb(170,85,170)" stroke="rgb(170,85,170)" stroke-width="1" opacity="0.011764705882352941" d="M 231.5 145 L 232 145.5 L 231 146.5 L 231 147.5 L 229.5 149 L 229 148.5 L 230 147.5 L 230 146.5 L 231.5 145 Z "/><path fill="rgb(170,85,170)" stroke="rgb(170,85,170)" stroke-width="1" opacity="0.011764705882352941" d="M 287.5 145 L 288 145.5 L 288 147.5 Q 287.5 148.5 287 147.5 L 287 145.5 L 287.5 145 Z "/><path fill="rgb(170,85,170)" stroke="rgb(170,85,170)" stroke-width="1" opacity="0.011764705882352941" d="M 149.5 146 L 150 146.5 L 150 179.5 L 153 182.5 L 152.5 183 L 151.5 182 Q 150.3 182 150 182 Q 150 181.8 150 180.5 L 149 179.5 L 149 177.5 L 148 176.5 L 148 171.5 L 149 170.5 L 149 146.5 L 149.5 146 Z "/><path fill="rgb(170,85,170)" stroke="rgb(170,85,170)" stroke-width="1" opacity="0.011764705882352941" d="M 197.5 146 Q 198.5 146.5 197.5 147 Q 196.5 146.5 197.5 146 Z "/><path fill="rgb(170,85,170)" stroke="rgb(170,85,170)" stroke-width="1" opacity="0.011764705882352941" d="M 195.5 147 L 196 147.5 L 194.5 149 L 194 148.5 L 195.5 147 Z "/><path fill="rgb(170,85,170)" stroke="rgb(170,85,170)" stroke-width="1" opacity="0.011764705882352941" d="M 192.5 149 L 193 149.5 L 191.5 151 L 190.5 151 L 189.5 152 L 189 151.5 L 190.5 150 L 191.5 150 L 192.5 149 Z "/><path fill="rgb(170,85,170)" stroke="rgb(170,85,170)" stroke-width="1" opacity="0.011764705882352941" d="M 228.5 150 L 229 150.5 L 227.5 152 L 227 151.5 L 228.5 150 Z "/><path fill="rgb(170,85,170)" stroke="rgb(170,85,170)" stroke-width="1" opacity="0.011764705882352941" d="M 286.5 151 Q 287.3 151.3 287 152.5 L 285.5 154 L 285 153.5 L 286 152.5 Q 285.8 151.3 286.5 151 Z "/><path fill="rgb(170,85,170)" stroke="rgb(170,85,170)" stroke-width="1" opacity="0.011764705882352941" d="M 187.5 152 L 188 152.5 L 186.5 154 L 186 153.5 L 187.5 152 Z "/><path fill="rgb(170,85,170)" stroke="rgb(170,85,170)" stroke-width="1" opacity="0.011764705882352941" d="M 184.5 154 Q 185.5 154.5 184.5 155 Q 183.5 154.5 184.5 154 Z "/><path fill="rgb(170,85,170)" stroke="rgb(170,85,170)" stroke-width="1" opacity="0.011764705882352941" d="M 225.5 154 L 226 154.5 L 224.5 156 L 224 155.5 L 225.5 154 Z "/><path fill="rgb(170,85,170)" stroke="rgb(170,85,170)" stroke-width="1" opacity="0.011764705882352941" d="M 182.5 155 L 183 155.5 L 181.5 157 L 181 156.5 L 182.5 155 Z "/><path fill="rgb(170,85,170)" stroke="rgb(170,85,170)" stroke-width="1" opacity="0.011764705882352941" d="M 222.5 156 L 223 156.5 L 221.5 158 L 221 157.5 L 222.5 156 Z "/><path fill="rgb(170,85,170)" stroke="rgb(170,85,170)" stroke-width="1" opacity="0.011764705882352941" d="M 179.5 157 L 180 157.5 L 178.5 159 L 177.5 159 L 176.5 160 L 176 159.5 L 177.5 158 L 178.5 158 L 179.5 157 Z "/><path fill="rgb(170,85,170)" stroke="rgb(170,85,170)" stroke-width="1" opacity="0.011764705882352941" d="M 219.5 158 L 220 158.5 L 218.5 160 L 217.5 160 L 216.5 161 L 216 160.5 L 217.5 159 L 218.5 159 L 219.5 158 Z "/><path fill="rgb(170,85,170)" stroke="rgb(170,85,170)" stroke-width="1" opacity="0.011764705882352941" d="M 284.5 158 Q 285.5 158.5 284.5 159 Q 283.5 158.5 284.5 158 Z "/><path fill="rgb(170,85,170)" stroke="rgb(170,85,170)" stroke-width="1" opacity="0.011764705882352941" d="M 173 160 Q 173.3 160 174.5 160 L 175 160.5 L 173.5 162 L 173 161.5 Q 173 160.3 173 160 Z "/><path fill="rgb(170,85,170)" stroke="rgb(170,85,170)" stroke-width="1" opacity="0.011764705882352941" d="M 212.5 161 Q 213.8 160.8 214 161.5 Q 213.8 162.3 212.5 162 Q 211.5 161.5 212.5 161 Z "/><path fill="rgb(170,85,170)" stroke="rgb(170,85,170)" stroke-width="1" opacity="0.011764705882352941" d="M 283.5 161 Q 284.5 161.5 283.5 162 Q 282.5 161.5 283.5 161 Z "/><path fill="rgb(170,85,170)" stroke="rgb(170,85,170)" stroke-width="1" opacity="0.011764705882352941" d="M 171.5 162 L 172 162.5 L 170.5 164 L 169.5 164 L 168.5 165 L 168 164.5 L 169.5 163 L 170.5 163 L 171.5 162 Z "/><path fill="rgb(170,85,170)" stroke="rgb(170,85,170)" stroke-width="1" opacity="0.011764705882352941" d="M 209.5 162 Q 210.8 161.8 211 162.5 Q 210.8 163.3 209.5 163 Q 208.5 162.5 209.5 162 Z "/><path fill="rgb(170,85,170)" stroke="rgb(170,85,170)" stroke-width="1" opacity="0.011764705882352941" d="M 191.5 163 Q 192.8 162.8 193 163.5 Q 192.8 164.3 191.5 164 L 190.5 165 L 190 164.5 L 191.5 163 Z "/><path fill="rgb(170,85,170)" stroke="rgb(170,85,170)" stroke-width="1" opacity="0.011764705882352941" d="M 160.5 165 L 161 165.5 Q 161 166.8 161 167 L 161.5 167 L 163.5 167 L 164.5 166 L 165.5 166 L 166.5 165 L 167 165.5 L 165.5 167 L 164.5 167 L 163.5 168 L 161.5 168 L 160 166.5 Q 159.8 165.3 160.5 165 Z "/><path fill="rgb(170,85,170)" stroke="rgb(170,85,170)" stroke-width="1" opacity="0.011764705882352941" d="M 188.5 165 Q 189.5 165.5 188.5 166 Q 187.5 165.5 188.5 165 Z "/><path fill="rgb(170,85,170)" stroke="rgb(170,85,170)" stroke-width="1" opacity="0.011764705882352941" d="M 186.5 166 L 187 166.5 L 185.5 168 L 185 167.5 L 186.5 166 Z "/><path fill="rgb(170,85,170)" stroke="rgb(170,85,170)" stroke-width="1" opacity="0.011764705882352941" d="M 183.5 168 L 184 168.5 L 182.5 170 L 182 169.5 L 183.5 168 Z "/><path fill="rgb(170,85,170)" stroke="rgb(170,85,170)" stroke-width="1" opacity="0.011764705882352941" d="M 180.5 170 Q 181.5 170.5 180.5 171 Q 179.5 170.5 180.5 170 Z "/><path fill="rgb(170,85,170)" stroke="rgb(170,85,170)" stroke-width="1" opacity="0.011764705882352941" d="M 279.5 170 Q 280.5 170.5 279.5 171 Q 278.5 170.5 279.5 170 Z "/><path fill="rgb(170,85,170)" stroke="rgb(170,85,170)" stroke-width="1" opacity="0.011764705882352941" d="M 178.5 171 L 179 171.5 L 176.5 174 L 175.5 174 L 173.5 176 L 172.5 176 Q 171.5 175.5 172.5 175 L 173.5 175 L 175.5 173 L 176.5 173 L 178.5 171 Z "/><path fill="rgb(170,85,170)" stroke="rgb(170,85,170)" stroke-width="1" opacity="0.011764705882352941" d="M 278.5 172 Q 279.5 172.5 278.5 173 Q 277.5 172.5 278.5 172 Z "/><path fill="rgb(170,85,170)" stroke="rgb(170,85,170)" stroke-width="1" opacity="0.011764705882352941" d="M 170.5 176 L 171 176.5 L 168.5 179 L 167.5 179 L 165.5 181 L 164.5 181 L 163.5 182 L 162.5 182 L 161.5 183 L 160.5 183 L 159.5 184 L 158.5 184 Q 157.5 183.5 158.5 183 L 159.5 183 L 160.5 182 L 161.5 182 L 163.5 180 L 164.5 180 L 165.5 179 L 166.5 179 L 168.5 177 L 169.5 177 L 170.5 176 Z "/><path fill="rgb(170,85,170)" stroke="rgb(170,85,170)" stroke-width="1" opacity="0.011764705882352941" d="M 275.5 177 L 276 177.5 L 274.5 179 L 274 178.5 L 275.5 177 Z "/><path fill="rgb(170,85,170)" stroke="rgb(170,85,170)" stroke-width="1" opacity="0.011764705882352941" d="M 81.5 180 L 82 180.5 L 82 188.5 Q 81.5 189.5 81 188.5 L 81 180.5 L 81.5 180 Z "/><path fill="rgb(170,85,170)" stroke="rgb(170,85,170)" stroke-width="1" opacity="0.011764705882352941" d="M 272.5 181 L 273 181.5 L 270.5 184 L 270 183.5 L 272.5 181 Z "/><path fill="rgb(170,85,170)" stroke="rgb(170,85,170)" stroke-width="1" opacity="0.011764705882352941" d="M 154.5 183 Q 155.5 183.5 154.5 184 Q 153.5 183.5 154.5 183 Z "/><path fill="rgb(170,85,170)" stroke="rgb(170,85,170)" stroke-width="1" opacity="0.011764705882352941" d="M 268.5 186 L 269 186.5 L 267.5 188 L 267 187.5 L 268.5 186 Z "/><path fill="rgb(170,85,170)" stroke="rgb(170,85,170)" stroke-width="1" opacity="0.011764705882352941" d="M 265.5 189 L 266 189.5 L 259.5 196 L 259 195.5 L 265.5 189 Z "/><path fill="rgb(170,85,170)" stroke="rgb(170,85,170)" stroke-width="1" opacity="0.011764705882352941" d="M 257.5 196 L 258 196.5 L 254.5 200 L 254 199.5 L 257.5 196 Z "/><path fill="rgb(170,85,170)" stroke="rgb(170,85,170)" stroke-width="1" opacity="0.011764705882352941" d="M 252.5 200 L 253 200.5 L 251.5 202 L 250.5 202 L 248.5 204 L 248 203.5 L 250.5 201 L 251.5 201 L 252.5 200 Z "/><path fill="rgb(170,85,170)" stroke="rgb(170,85,170)" stroke-width="1" opacity="0.011764705882352941" d="M 245.5 204 Q 246.8 203.8 247 204.5 Q 246.8 205.3 245.5 205 L 244.5 206 L 243.5 206 L 242.5 207 L 241.5 207 Q 240.5 206.5 241.5 206 L 242.5 206 L 243.5 205 L 244.5 205 L 245.5 204 Z "/><path fill="rgb(170,85,170)" stroke="rgb(170,85,170)" stroke-width="1" opacity="0.011764705882352941" d="M 82.5 205 Q 83.5 205.5 82.5 206 Q 81.5 205.5 82.5 205 Z "/><path fill="rgb(170,85,170)" stroke="rgb(170,85,170)" stroke-width="1" opacity="0.011764705882352941" d="M 239.5 207 L 240 207.5 L 238.5 209 Q 237.3 209.3 237 208.5 Q 237.3 207.8 238.5 208 L 239.5 207 Z "/><path fill="rgb(170,85,170)" stroke="rgb(170,85,170)" stroke-width="1" opacity="0.011764705882352941" d="M 81.5 208 L 82 208.5 L 82 210.5 Q 81.5 211.5 81 210.5 L 81 208.5 L 81.5 208 Z "/><path fill="rgb(170,85,170)" stroke="rgb(170,85,170)" stroke-width="1" opacity="0.011764705882352941" d="M 235.5 208 L 236 208.5 L 234.5 210 L 234 209.5 L 235.5 208 Z "/><path fill="rgb(170,85,170)" stroke="rgb(170,85,170)" stroke-width="1" opacity="0.011764705882352941" d="M 230.5 210 L 231 210.5 L 229.5 212 L 227.5 212 L 227 211.5 L 227.5 211 L 229.5 211 L 230.5 210 Z "/><path fill="rgb(170,85,170)" stroke="rgb(170,85,170)" stroke-width="1" opacity="0.011764705882352941" d="M 232.5 210 Q 233.5 210.5 232.5 211 Q 231.5 210.5 232.5 210 Z "/><path fill="rgb(170,85,170)" stroke="rgb(170,85,170)" stroke-width="1" opacity="0.011764705882352941" d="M 221 212 L 221.5 212 L 225.5 212 L 226 212.5 L 225.5 213 L 223.5 213 L 222.5 214 Q 221.3 214 221 214 L 221 213.5 Q 221 212.3 221 212 Z "/><path fill="rgb(170,85,170)" stroke="rgb(170,85,170)" stroke-width="1" opacity="0.011764705882352941" d="M 87.5 213 Q 88.8 212.8 89 213.5 Q 88.8 214.3 87.5 214 Q 86.5 213.5 87.5 213 Z "/><path fill="rgb(170,85,170)" stroke="rgb(170,85,170)" stroke-width="1" opacity="0.011764705882352941" d="M 91.5 213 L 104.5 213 L 105 213.5 L 104.5 214 L 91.5 214 Q 90.5 213.5 91.5 213 Z "/><path fill="rgb(170,85,170)" stroke="rgb(170,85,170)" stroke-width="1" opacity="0.011764705882352941" d="M 109.5 213 L 112 215.5 L 112 216.5 L 111.5 217 L 109.5 215 Q 108.3 215.3 108 214.5 L 109.5 213 Z "/><path fill="rgb(170,85,170)" stroke="rgb(170,85,170)" stroke-width="1" opacity="0.011764705882352941" d="M 191.5 213 L 212.5 213 L 213.5 214 Q 214.8 213.8 215 214.5 L 214.5 215 L 189.5 215 Q 188.5 214.5 189.5 214 L 190.5 214 L 191.5 213 Z "/><path fill="rgb(170,85,170)" stroke="rgb(170,85,170)" stroke-width="1" opacity="0.011764705882352941" d="M 216.5 213 L 219.5 213 L 220 213.5 L 219.5 214 L 216.5 214 Q 215.5 213.5 216.5 213 Z "/><path fill="rgb(170,85,170)" stroke="rgb(170,85,170)" stroke-width="1" opacity="0.011764705882352941" d="M 179.5 216 L 180 216.5 L 180 266.5 Q 179.5 267.5 179 266.5 L 179 216.5 L 179.5 216 Z "/><path fill="rgb(170,85,170)" stroke="rgb(170,85,170)" stroke-width="1" opacity="0.011764705882352941" d="M 111.5 221 L 112 221.5 L 112 267.5 L 109.5 270 L 83.5 270 Q 82.5 269.5 83.5 269 L 109.5 269 L 111 267.5 L 111 221.5 L 111.5 221 Z "/><path fill="rgb(170,85,170)" stroke="rgb(170,85,170)" stroke-width="1" opacity="0.011764705882352941" d="M 31.5 230 Q 32.3 230.3 32 231.5 L 33 232.5 L 33 233.5 L 34 234.5 L 34 235.5 L 35 236.5 L 35 237.5 L 36 238.5 L 36 239.5 L 39 242.5 L 39 243.5 L 40 244.5 Q 40 245.8 40 246 L 40.5 246 Q 41.8 246 42 246 Q 42 246.3 42 247.5 L 48.5 254 L 49.5 254 L 53.5 258 Q 54.8 258 55 258 Q 55 258.3 55 259.5 L 54.5 260 L 52.5 258 L 51.5 258 L 39 245.5 L 39 244.5 L 36 241.5 L 36 240.5 L 35 239.5 L 35 238.5 L 34 237.5 L 34 236.5 L 33 235.5 L 33 234.5 L 32 233.5 L 32 232.5 L 31 231.5 Q 30.8 230.3 31.5 230 Z "/><path fill="rgb(170,85,170)" stroke="rgb(170,85,170)" stroke-width="1" opacity="0.011764705882352941" d="M 56.5 260 L 57.5 260 L 58.5 261 L 59.5 261 L 60.5 262 L 61.5 262 L 62.5 263 L 63.5 263 L 64.5 264 L 65.5 264 L 66.5 265 L 68.5 265 L 69.5 266 L 70.5 266 L 71.5 267 L 74.5 267 L 75.5 268 L 77.5 268 L 78 268.5 L 77.5 269 L 75.5 269 L 74.5 268 L 71.5 268 L 70.5 267 L 68.5 267 L 67.5 266 L 66.5 266 L 65.5 265 L 63.5 265 L 62.5 264 L 61.5 264 L 59.5 262 L 57.5 262 L 56 260.5 L 56.5 260 Z "/><path fill="rgb(170,85,170)" stroke="rgb(170,85,170)" stroke-width="1" opacity="0.011764705882352941" d="M 80.5 268 L 82 269.5 L 81.5 270 L 80 268.5 L 80.5 268 Z "/></svg>